<?xml version="1.0" encoding="UTF-8"?>
<svg xmlns="http://www.w3.org/2000/svg" viewBox="0 0 1024 1024">
  <defs>
    <style>
      .cls-1 {
        fill: #477700;
      }

      .cls-2 {
        fill: #63a300;
      }
    </style>
  </defs>
  <g id="Colors">
    <path class="cls-2" d="M578.22,229.35c-26.46,23.5-54.77,49.72-60.51,86.49-.36,2.29,1.54,5.42,4.31,4.31,34.79-14.07,58.24-46.5,60.48-84.03.02-.41-.03-.77-.12-1.11.26-.24.53-.47.79-.71,3.37-3-1.59-7.93-4.95-4.95Z"/>
    <path class="cls-2" d="M531.83,798.87c-.43-21.28-.86-42.56-1.29-63.84-1.71-85.12-3.43-170.24-5.14-255.36-.96-47.88-1.93-95.76-2.89-143.64-.14-7.19-10.59-7.7-11.87-1.45-1.59-1.82-3.5-3.32-5.68-4.32.69-1.6.85-3.48.56-5.45-.59-4-1.18-7.99-1.76-11.99-.07-6.68-1.05-13.32-2.91-19.79-1.07-3.72-3.62-5.47-6.35-5.71-.01-.12-.02-.24-.04-.36,2.08-.74,3.75-2.41,4.84-4.53.05.93.12,1.86.23,2.8.5,4.42,7.51,4.48,7,0-1.23-10.81,1.53-21.04,4.65-31.3,3.04-10.02,5.81-19.93,6.75-30.4,1.6-17.96-1.09-35.94-4.47-53.62.36-.94.56-2.02.54-3.26-.01-.65-.02-1.31-.03-1.96-.02-.94-.17-1.8-.42-2.57-.02-.18-.04-.37-.06-.55.87-.66,1.64-1.46,2.28-2.38,3.53-5.1,1.47-11.58.51-17.15-2.82-16.39-3.89-33.01-3.48-49.64.11-4.51-6.89-4.5-7,0-.04,1.59-.05,3.18-.07,4.77-2.96-.68-6.18.26-8.08,3.75-4.96,9.1-9.49,18.42-13.62,27.92-1.84.49-3.49,1.65-4.48,3.61-1.79,3.56-3.58,7.12-5.38,10.67-2.38-.54-4.96.02-6.92,2.17-3.62-.56-7.7.97-9.33,5.33-1.17,3.14-2.34,6.27-3.51,9.41-.27.52-.49,1.08-.67,1.71-.03.12-.07.23-.1.35-4.68,12.55-9.36,25.09-14.04,37.64-3.25.39-6.34,2.42-6.91,5.73-.69,4.04-1.22,8.09-1.61,12.14-.9.44-1.66,1.03-2.28,1.72-3.41.44-6.39,2.95-6.4,7.63,0,.36,0,.72.01,1.08-.12.56-.19,1.14-.18,1.75.08,4.14.33,8.27.74,12.38.46,6.08,1.21,12.13,2.26,18.12-1.11,1.66-1.6,3.83-1.03,6.36,1.85,8.21,4.83,16.13,8.78,23.51,1.15,3.3,2.39,6.57,3.73,9.8,1.27,3.05,3.54,5.42,6.71,5.77,3.39,4.1,7.12,7.91,11.18,11.38,1.25,1.07,2.57,1.7,3.88,2.01,1.77,2.68,3.55,5.36,5.32,8.04.86,1.3,2.02,2.21,3.31,2.79-1.5,1.29-2.52,3.19-2.6,5.72-.64,21.18-1.29,42.37-1.93,63.55-4.76-.79-10.61,2.09-9.94,7.7.1.84.21,1.68.33,2.51.49,3.67.86,7.36,1.13,11.05-.43.98-.72,2.07-.86,3.23-1.17,9.77-.6,19.37,1.29,29.01.75,3.84,3.49,5.6,6.48,5.74.5,1.74,1.01,3.48,1.53,5.22,0,.07-.01.13-.01.2-.96,65.7-1.92,131.41-2.87,197.11-.51-1.42-.98-2.86-1.38-4.35-2.28-8.5-16.31-7.07-15.71,2.13.25,3.85.52,7.71.79,11.56-2.86,1.58-4.86,4.71-3.92,8.82,2.45,10.79,4.91,21.59,7.36,32.38.33,1.46,1.03,2.61,1.94,3.5.91,2.15,2.45,3.44,4.2,4.01-.02.1-.05.2-.07.3-6.81,45.07-7.48,90.5-2.05,135.67-5.29-1.01-9.24,7.47-3.77,11.38,14.22,10.2,31.31,16.01,48.79,16.82,8.15.38,17.41.04,25.19-2.65,8.45-2.92,11.96-9.62,12.05-18.26.23-21.1-.84-42.3-1.27-63.39ZM508.36,136.4c.12.83.24,1.65.36,2.48-.14-.1-.28-.19-.42-.28.02-.73.04-1.47.06-2.2ZM479.54,331.45c-.38-.64-.85-1.2-1.4-1.67.99.55,2.11.81,3.25.83-.64.24-1.26.52-1.86.85Z"/>
    <path class="cls-1" d="M599.05,221.02c-.03-.6-.21-1.16-.53-1.67-.23-.3-.47-.61-.7-.91-.56-.56-1.22-.94-1.99-1.16l-1.2-.16c-.81,0-1.57.21-2.27.61-.18.09-.37.18-.55.28-.52.28-.95.67-1.26,1.16-.29.32-.49.7-.65,1.1-2.04-3.74-8.82-3.17-8.41,1.88,3.6,44.29-24.2,85.34-66.94,97.84-5.55,1.62-3.19,10.31,2.39,8.68,1.43-.42,2.85-.87,4.25-1.34.56,2.22,2.57,4.09,5.42,3.33.56-.15,1.11-.33,1.67-.48,1.14,1.92,3.44,3.02,5.82,1.39,9.42-6.47,21.18-7.59,30.71-14.03,8.44-5.71,15.33-13.47,20.5-22.21,12.44-21.04,13.69-46.3,12.48-70.11,0-.12-.03-.24-.05-.36.15-.15.3-.31.42-.49.4-.43.67-.94.81-1.53.19-.6.21-1.2.08-1.79Z"/>
    <path class="cls-1" d="M583.32,200.55c-2.09-9.82-5.4-19.54-8.82-28.96-.21-.57-.43-1.14-.65-1.71,0-.18.02-.35,0-.52-.21-4.59-2.02-8.82-4.95-11.98-1.2-2.95-2.45-6.14-5.28-7.84-4.26-2.57-8.93-.03-12.9,3.35-5.39,1.93-9.88,6.46-11.36,11.97-.92,1.14-1.82,2.3-2.68,3.49-2.27,3.11-5.48,7.01-6.06,10.94-.48,3.27,1.04,6.4,3.91,7.81,3.07,7.32,6.13,14.63,9.2,21.95,1.9,4.53,3.79,9.05,5.69,13.58,1.41,3.36,2.5,8.48,5.83,10.49,2.83,1.71,5.56.66,7.93-1.28,4.08-3.35,7.92-7.07,11.85-10.59,6.81-6.08,10.24-11.31,8.25-20.68Z"/>
    <path class="cls-1" d="M547.77,135.47c-1.1-2.41-2.2-4.82-3.3-7.23.26-1.98-.65-4.05-3.17-4.65-.26-.06-.53-.13-.79-.19-.22-.05-.44-.09-.66-.11-1.66-6.61-3.77-13.12-5.97-19.63-1.3-3.85-5.42-3.93-7.51-1.74-.02-.36-.09-.74-.21-1.13-.19-.6-.37-1.2-.56-1.8-.78-2.52-2.8-3.42-4.71-3.15.42-1.89.98-3.77,1.76-5.64,2.22-5.34-6.49-7.67-8.68-2.39-4.97,11.98-2.88,24.79-.78,37.16,2.38,14.04,1.63,27.31-.17,41.37-.23,1.81.51,3.03,1.66,3.69-1.16.66-1.92,1.89-1.69,3.72,2.55,20.45,5.34,41.63,1.16,62.06-3.8,18.58-14.05,37.34-6.33,56.38,2.15,5.3,10.86,2.98,8.68-2.39-.29-.73-.55-1.46-.79-2.19.22-.35.41-.74.54-1.2.29-1.01.57-2.03.85-3.05.94-.32,1.78-.88,2.35-1.66,6.28-8.66,13.35-17.25,17.29-27.14,1.32.15,2.68-.21,3.59-1.22.82-.9,1.54-1.82,2.21-2.78.8-.5,1.46-1.28,1.84-2.38.44-1.28.89-2.56,1.33-3.84,1.15-3.31-1.53-5.46-4.26-5.47-.19-1.31-.44-2.61-.75-3.91-.24-1.04-.74-1.81-1.38-2.33-.7-5.24-2.04-10.44-3.23-15.49-1.92-8.12-4.26-16.01-7.99-23.5-.93-1.87-2.53-2.47-4.08-2.23-.57-5.9-1.28-11.79-2.02-17.67-.23-1.81-1.29-3.04-2.62-3.71.46-.23.89-.51,1.26-.87.35.51.81.98,1.41,1.4,2.66,1.83,6,.9,7.82-1.65,1.93-2.7,3-6.47,4.07-9.92.03-.02.05-.03.08-.05.31-.23.61-.47.91-.71,0,0,0,0,0,0,.02-.02.05-.04.08-.06.73-.59,1.44-1.19,2.12-1.82,2.36-1.94,4.83-3.69,7.48-5.3,2.24-1.37,2.62-3.9,1.61-6.16,0,0,0-.01,0-.02.39-1.31.69-2.64.9-4,1.38-1.42,1.51-3.54.66-5.39Z"/>
    <path class="cls-1" d="M572.78,837.94c-.51-17.62-1.04-35.25-1.53-52.87-.98-35.25-1.9-70.5-2.75-105.75-.65-27.2-1.25-54.4-1.82-81.6.08-.31.16-.61.23-.9.11-.45.18-.91.27-1.37.55-.52,1-1.22,1.29-2.14,2.28-7.34,3.31-14.89,3.09-22.57-.02-.74-.2-1.38-.48-1.95,2.42-3.74-1.66-8.49-5.13-7.05-.62-31.31-1.19-62.63-1.69-93.95-.3-18.23-.57-36.46-.82-54.69,7.02-9.72,9.41-21.88,6.22-33.67-.29-1.05-1.03-1.91-1.97-2.49.18-2.59-2.3-4.66-4.78-4.66-.08-6.54-.17-13.08-.25-19.62,3.25-7.17-1.82-16.36-9.14-18.6-1.26-.39-2.55-.57-3.86-.62-1.26-.3-2.56-.51-3.9-.61-.89-.07-1.75,0-2.59.15-.62-.09-1.24-.14-1.86-.11-4.19.19-7.66,2.09-9.87,5.05-.07.05-.14.09-.2.14-1.35-4.43-8.89-4.02-8.78,1.3,1.52,69.63,2.82,139.27,3.89,208.91,1.08,69.64,1.93,139.29,2.57,208.93.36,39.32.64,78.64.86,117.97.03,4.6,5.69,5.54,8.01,2.83.07.06.15.11.22.17,1.95,1.13,4.05,1.7,6.31,1.71h.45c1.72.06,3.33-.29,4.82-1.08,1.55-.5,2.89-1.37,4.02-2.58.84-.78,1.5-1.66,2-2.64,5.5-2.11,10.11-5.93,13.11-11.49,4.04-7.48,4.33-15.87,4.08-24.17Z"/>
  </g>
  <g id="Outlines">
    <path d="M515.09,83.26c1.93,0,1.93-3,0-3s-1.93,3,0,3h0Z"/>
    <path d="M519.48,319.59c3.13-21.66,13.76-41.14,28.02-57.51,7.6-8.73,16.05-16.67,24.86-24.16,4.54-3.86,9.17-7.6,13.85-11.28,2.07-1.63,4.16-3.25,6.25-4.86,1.98-1.53,5.12-4.88,7.59-5.42h-3.99c-2.18-2.68-2.91-3-2.17-.94.16.84.32,1.68.46,2.52.33,1.87.62,3.74.85,5.62.42,3.4.69,6.82.84,10.25.33,7.28.11,14.65-.92,21.87-2,14-6.88,27.63-15.03,39.24-7.22,10.28-17.15,18.64-28.45,24.11-5.51,2.67-11.66,4.54-17.73,5.35-4.24.57-13.46,1.94-14.93-3.62-2.47-9.32-16.94-5.37-14.46,3.99,6.74,25.45,44.55,13.41,59.9,4.47,19.79-11.54,34.01-30.6,41.09-52.21,3.82-11.66,5.57-24.09,5.67-36.34.05-6.29-.37-12.56-1.18-18.8-.72-5.55-.8-12.65-4.84-16.99-5.21-5.6-11.64-2.66-16.72,1.23-5.24,4.01-10.47,8.03-15.63,12.14-10.23,8.14-20.22,16.64-29.31,26.05-18.97,19.63-34.51,43.86-38.47,71.3-.58,4.04,1,8.01,5.24,9.23,3.52,1.01,8.65-1.23,9.23-5.24h0Z"/>
    <path d="M556.44,246.75c-2.99-33.05-19.99-61.67-39.11-87.97-2.7-3.71-8.22-5.37-11.78-1.52-20.97,22.71-35.03,51.29-39.6,81.9-.6,4.03,1.01,8.02,5.24,9.23,3.53,1.01,8.63-1.24,9.23-5.24,4.2-28.12,16.42-54.36,35.74-75.28l-11.78-1.52c17.33,23.85,34.33,50.29,37.06,80.4.86,9.54,15.87,9.63,15,0h0Z"/>
    <path d="M533.39,182.19c4.92-7.9,10.52-15.25,16.94-21.99,3.17-3.32,7.77-6.29,10.48-9.93l1.3-1.1-2.06-.84s1.15,1.59,1.19,1.65c1.44,2.17,2.64,4.56,3.86,6.86,9.06,17.12,14.63,36.1,16.36,55.39.86,9.54,15.86,9.63,15,0-1.16-12.88-3.58-25.6-7.68-37.88-3.82-11.45-8.69-23.68-15.68-33.59-3.35-4.75-8.49-7.98-14.49-6.42-5.66,1.47-10.63,7.11-14.7,11.03-9.02,8.69-16.86,18.62-23.48,29.24-5.12,8.22,7.85,15.76,12.95,7.57h0Z"/>
    <path d="M561.03,139.06c-8.15-23.88-21.94-45.4-40.52-62.5-2.31-2.13-6.29-3.08-9.09-1.17-11.32,7.74-20.23,18.36-28.37,29.27s-15.33,22.34-21.27,34.45c-4.24,8.63,8.7,16.25,12.95,7.57,5.5-11.21,12.14-21.9,19.47-32,6.96-9.6,14.92-19.59,24.8-26.34l-9.09-1.17c16.67,15.34,29.34,34.41,36.66,55.88,3.1,9.09,17.59,5.18,14.46-3.99h0Z"/>
    <path d="M501.3,174.62c-6.62-10.63-14.46-20.54-23.48-29.24-3.95-3.81-8.65-9.09-14.02-10.76-6.24-1.93-11.59,1.04-15.17,6.14-6.98,9.95-11.84,22.13-15.68,33.59-4.11,12.28-6.52,25-7.68,37.88-.86,9.61,14.14,9.55,15,0,1.73-19.29,7.3-38.27,16.36-55.39,1.09-2.06,2.22-4.11,3.41-6.11.12-.2,1.43-1.97,1.39-2.14.53-.5.27-.45-.78.15-1.23.15-1.36.47-.38.97.53,1.42,3.92,3.43,5.09,4.51,1.87,1.74,3.69,3.52,5.46,5.35,6.66,6.91,12.46,14.46,17.53,22.6s18.08.65,12.95-7.57h0Z"/>
    <path d="M518.44,315.6c-3.53-24.44-16.31-46.42-32.43-64.76-8.64-9.82-18.34-18.65-28.42-26.98-4.59-3.79-9.27-7.49-13.98-11.14s-10.95-10.47-17.22-10.97c-13.42-1.08-13.17,19.8-13.79,28.63-.87,12.57.02,25.35,2.85,37.63,5.29,22.96,18.19,43.41,37.4,57.18,9.63,6.9,20.98,11.81,32.71,13.64,12.81,2,29.4.97,33.38-14.09,2.47-9.34-11.99-13.33-14.46-3.99-1.47,5.57-10.68,4.19-14.93,3.62-6.08-.81-12.22-2.68-17.73-5.35-11.29-5.46-21.25-13.82-28.45-24.11-8.14-11.63-13.02-25.22-15.03-39.24-1.04-7.22-1.24-14.59-.92-21.87.15-3.42.42-6.85.84-10.25.2-1.6.44-3.19.71-4.78.19-1.12.39-2.24.61-3.36.73-2.06,0-1.75-2.17.94h-3.99c2.38.53,5.02,3.44,6.88,4.88,2.33,1.79,4.65,3.59,6.95,5.4,4.68,3.68,9.32,7.42,13.85,11.28,8.81,7.49,17.26,15.44,24.86,24.16,14.26,16.38,24.9,35.85,28.02,57.51.58,4,5.67,6.23,9.23,5.24,4.3-1.21,5.82-5.18,5.24-9.23h0Z"/>
    <path d="M565.45,356.05c-14.26,12.47-29.95,25.2-40.6,41.08-9.9,14.76-5.53,35,11.67,41.92s34.13-4.12,39.98-20.07c2.87-7.84,3.26-16.48,3.37-24.76.14-10.27.15-20.55.22-30.82.07-9.65-14.93-9.66-15,0-.06,8.14-.12,16.27-.17,24.41-.05,6.34.17,12.84-.81,19.12-1.6,10.28-9.87,23.54-22.31,18.18-4.18-1.8-7.41-6.24-7.61-10.81-.27-6.26,5.09-11.82,8.92-16.19,10.03-11.43,21.51-21.46,32.94-31.46,7.28-6.37-3.36-16.94-10.61-10.61h0Z"/>
    <path d="M568.51,543.1c-14.26,12.47-29.95,25.2-40.6,41.08-9.9,14.76-5.53,35,11.67,41.92s34.13-4.12,39.98-20.07c2.87-7.84,3.26-16.48,3.37-24.76.14-10.27.15-20.55.22-30.82.07-9.65-14.93-9.66-15,0-.06,8.14-.12,16.27-.17,24.41-.05,6.34.17,12.84-.81,19.12-1.6,10.28-9.87,23.54-22.31,18.18-4.18-1.8-7.41-6.24-7.61-10.81-.27-6.26,5.09-11.82,8.92-16.19,10.03-11.43,21.51-21.46,32.94-31.46,7.28-6.37-3.36-16.94-10.61-10.61h0Z"/>
    <path d="M433.89,658.7c11.2,9.8,22.45,19.63,32.34,30.78,4,4.51,9.8,10.34,9.52,16.87-.19,4.55-3.41,9.04-7.61,10.81-12.07,5.09-20.42-7.25-22.18-17.42-1.07-6.21-.88-12.63-.93-18.9-.06-8.46-.12-16.92-.18-25.38-.07-9.65-15.07-9.67-15,0,.07,10.27.09,20.55.22,30.82.11,8.27.49,16.91,3.37,24.76,5.85,15.95,23.24,26.8,39.98,20.07s21.58-27.15,11.67-41.92c-10.65-15.87-26.34-28.61-40.6-41.08-7.24-6.33-17.89,4.24-10.61,10.61h0Z"/>
    <path d="M444.69,398.9c11.2,9.8,22.45,19.63,32.34,30.78,4,4.51,9.8,10.34,9.52,16.87-.19,4.55-3.41,9.04-7.61,10.81-12.07,5.09-20.42-7.25-22.18-17.42-1.07-6.21-.88-12.63-.93-18.9-.06-8.46-.12-16.92-.18-25.38-.07-9.65-15.07-9.67-15,0,.07,10.27.09,20.55.22,30.82.11,8.27.49,16.91,3.37,24.76,5.85,15.95,23.24,26.8,39.98,20.07,17.2-6.92,21.58-27.15,11.67-41.92-10.65-15.87-26.34-28.61-40.6-41.08-7.24-6.33-17.89,4.24-10.61,10.61h0Z"/>
    <path d="M553.61,328.12l2.26,33.83c.64,9.58,15.65,9.65,15,0l-2.26-33.83c-.64-9.58-15.65-9.65-15,0h0Z"/>
    <path d="M556.69,434.35c3.59,37.44,5.06,75.04,4.41,112.65-.17,9.66,14.83,9.66,15,0,.64-37.61-.83-75.21-4.41-112.65-.91-9.52-15.92-9.62-15,0h0Z"/>
    <path d="M558.8,622.09c5.74,68.68,8.43,137.6,7.98,206.52-.08,12.97,2.78,29.95-9.49,38.38-10.96,7.53-25.84,8.77-38.72,9.45-16.34.86-32.73-.49-48.67-4.22-6.15-1.44-13.3-2.92-16.01-9.37s-2.97-15.04-3.69-22.22c-3.74-37.75-1.6-75.92,6.37-112.99,2.02-9.41-12.43-13.44-14.46-3.99-7.78,36.16-10.49,73.38-7.51,110.26.7,8.68,1.52,17.46,3.05,26.03,1.42,7.94,4.77,15.32,11.46,20.13s15.34,6.45,23.26,8c8.68,1.7,17.52,2.82,26.35,3.33,16.57.95,34.41.28,50.43-4.45,13.29-3.92,25.89-11.88,30.37-25.66,2.75-8.47,2.12-17.95,2.2-26.74.08-9.23.11-18.47.09-27.7-.06-19.12-.35-38.25-.89-57.37-1.19-42.52-3.59-85-7.13-127.39-.8-9.55-15.8-9.64-15,0h0Z"/>
    <path d="M460.85,658.66c4.07-64.4,6.21-128.91,6.41-193.43.03-9.65-14.97-9.67-15,0-.2,64.53-2.33,129.04-6.41,193.43-.61,9.64,14.39,9.6,15,0h0Z"/>
    <path d="M469.66,395.24c-1.76-21.42-1.17-43,2.15-64.24.63-4.03-1.03-8.02-5.24-9.23-3.55-1.02-8.6,1.24-9.23,5.24-3.54,22.62-4.56,45.4-2.68,68.23.79,9.55,15.79,9.64,15,0h0Z"/>
  </g>
</svg>