<?xml version="1.0" encoding="UTF-8"?>
<svg xmlns="http://www.w3.org/2000/svg" viewBox="0 0 1024 1024">
  <defs>
    <style>
      .cls-1 {
        fill: #cf730c;
      }

      .cls-2 {
        fill: #663f1c;
      }

      .cls-3 {
        fill: #ac5400;
      }

      .cls-4 {
        fill: #d1770e;
      }

      .cls-5 {
        fill: #ed9a23;
      }

      .cls-6 {
        fill: none;
        stroke: #000;
        stroke-miterlimit: 10;
        stroke-width: 13px;
      }

      .cls-7 {
        fill: #fdd085;
      }
    </style>
  </defs>
  <g id="Colors">
    <path class="cls-5" d="M741.11,465.74c11.41-7.06,16.5-20.03,13.71-34.03-6.06-30.45-20.14-59.01-35.55-85.73-7.62-13.21-15.04-28.65-26.12-39.29-6.16-5.91-14.09-10.53-22.55-12.61-5.43-6.83-11.92-12.59-19.48-17.29-.52-1.55-1.04-3.09-1.55-4.64-.94-3.97-2.76-7.43-5.46-10.37-2.15-3.32-5-5.94-8.56-7.86-3.5-2.23-7.28-3.44-11.34-3.62-2.31-.52-4.62-.67-6.93-.48-39.38-18.06-82.91-25.33-125.7-20.56-6.18-2.24-12.26-2.26-19.22-1.17-68.51,10.7-135.09,47.31-179.59,100.7-24.91,29.9-43.65,63.93-54.41,101.44-10.82,37.72-12.81,76.85-7.4,115.57,2.88,20.65,8.66,40.37,16.76,59.55,4.16,9.85,8.69,19.49,14.83,28.29,8.36,11.97,17.34,21.04,28.9,29.85,4.29,3.27,11.3,4.39,17.38,4.02,7.79,8.7,16.18,15.79,27.68,23.74,11.17,7.73,24.8,12.64,37.36,17.24,7.78,2.85,15.81,5,23.84,7,24.04,5.99,48.7,9.5,73.3,12.15,18.45,1.99,37.11,2.82,55.65,1.86,15.16-.79,30.32-2.91,45.29-5.29,8.95-1.42,17.81-3.41,26.47-6.09,13.16-4.07,25.99-9.65,38.43-15.46,7-3.27,13.76-7.07,20.14-11.42,11.37-7.74,22.65-16.22,32.53-25.85,9.67-9.44,18-20.58,25.66-31.61,4.32-6.23,7.91-12.88,10.96-19.81,5.46-12.4,11.03-24.81,14.24-38.01,3.26-13.39,4.9-27.33,6.15-41.01.72-7.92.83-15.89.39-23.82-.83-15.09-2.64-30.43-5.81-45.38ZM582.58,526.16c-3.36,7.78-6.54,15.77-11.16,22.91-.09.15-.2.28-.29.43-.98.93-2.17,1.9-3.16,2.89-.47.28-.93.58-1.4.85-.46.26-.92.5-1.39.74-7.05,2.44-14.37,3.84-21.75,4.93-22.82,2.76-46.22,3.58-69.1,1.04-6.69-1.1-13.26-2.66-19.64-4.94-2.63-1.27-5.18-2.67-7.63-4.28-.19-.12-.35-.23-.51-.33-.07-.06-.12-.11-.14-.13-1.76-1.57-3.41-3.25-4.98-5.01-.08-.09-.19-.22-.31-.36-1.24-1.8-2.41-3.65-3.5-5.55-1.58-2.74-2.98-5.56-4.3-8.43-2.53-6.47-4.72-13.06-6.84-19.67-2.03-6.35-6.12-12.03-11.36-16.1,2.45-12.58,5.89-24.94,10.34-36.97,4-8.42,8.5-16.57,13.5-24.42,7.79-1.75,14.83-6.49,19.35-14.04.06-.1.11-.18.16-.27.45-.42.9-.84,1.35-1.26.32-.2.64-.41.97-.6.62-.35,1.25-.68,1.88-1,4.71-1.63,9.55-2.76,14.48-3.59,24.91-2.8,50.47-2.23,75.47.33,11.96,18.76,23.34,37.88,32.7,58.06,3.5,9.27,6.44,18.71,8.7,28.33-3.81,8.81-7.62,17.62-11.43,26.43Z"/>
    <path class="cls-1" d="M797.66,514.04c-1.37-22.63-3.9-45.17-7.39-67.57,2.2-3.48,2.99-7.82,1.98-12.33-2.97-13.29-10.73-24.21-19.05-34.67-1.37-1.73-2.77-3.43-4.17-5.14.06-1.02-.11-2.1-.59-3.2-9.52-21.72-22.14-41.76-37.35-59.94-1.53-1.83-3.37-2.36-5.09-2.05-3.53-4.84-7.19-9.6-10.99-14.25-.12-.15-.25-.29-.38-.43-2.37-3.33-4.81-6.61-7.33-9.84-1.07-1.37-2.39-2.01-3.74-2.11-3.74-5.46-7.6-10.83-11.59-16.12-1.98-2.61-4.89-4.02-8.12-2.66-.53.22-1.04.54-1.51.92-.24-.36-.48-.73-.72-1.09-.07-1.33-.56-2.7-1.63-3.95-1.64-1.92-3.28-3.85-4.91-5.77-3.34-3.92-8.97-1.51-10.68,2.4-5.59-5.76-11.38-11.32-17.34-16.65-5.81-5.19-11.8-10.17-17.93-14.98-6.51-5.1-15.77,4.04-9.19,9.19,47.68,37.36,86.53,87.35,104.76,145.6,19.1,61.02,14.74,129.81-18.38,185.24-29.28,49-77.81,85.05-130.88,104.78-61.89,23.01-131.8,25.71-194.34,3.59-53.88-19.06-101.25-57.66-128.97-107.84-3.42-6.19-6.52-12.55-9.34-19.04-3.33-7.65-14.54-1.04-11.23,6.56,6.55,15.04,14.76,29.27,24.33,42.54-2.18,2.32-3.01,6.09-.34,9.17,3.37,3.89,6.65,7.85,9.86,11.86,15.13,21.99,30.26,43.99,45.39,65.98,2.12,3.08,5.45,3.54,8.09,2.45,8.45,8.3,17.44,16,26.92,23.16.77.58,1.6.9,2.44,1,71.37,52.27,168.36,67.94,252.29,39.54,84.81-28.7,152.55-96.48,179.17-182.2,6.04-19.46,9.93-39.59,11.65-59.89,3.92-2.78,6.64-7.14,6.33-12.28Z"/>
    <path class="cls-3" d="M555.84,731.65c-7.08,0-7.09,11,0,11s7.09-11,0-11Z"/>
    <path class="cls-3" d="M488.75,741.14c-7.08,0-7.09,11,0,11s7.09-11,0-11Z"/>
    <path class="cls-3" d="M673.65,676.34c-7.08,0-7.09,11,0,11s7.09-11,0-11Z"/>
    <path class="cls-3" d="M620.31,700.67c-10.3,0-10.31,16,0,16s10.31-16,0-16Z"/>
    <path class="cls-3" d="M717.18,616.24c-10.3,0-10.31,16,0,16s10.31-16,0-16Z"/>
    <path class="cls-2" d="M369.8,536.93c-.8-6.21-7.79-8.71-13.08-9.88-5.89-1.3-12.23-.76-17.18,2.7-.75.29-1.31.76-1.7,1.35-.04.04-.09.07-.13.11-.6.55-.72,1.21-.56,1.8-.17,1.24.03,2.59.48,3.72.93,2.35,2.46,4.41,4.43,5.98,4.77,3.8,10.84,4.52,16.72,3.6,4.98-.78,11.84-3.05,11.01-9.39Z"/>
    <path class="cls-2" d="M296.96,589.7c6.25.45,10.09-5.9,12.28-10.85,2.45-5.52,3.18-11.83.77-17.37-.13-.79-.49-1.43-.99-1.93-.03-.05-.05-.1-.08-.15-.42-.69-1.04-.95-1.65-.9-1.18-.42-2.55-.49-3.74-.27-2.49.44-4.81,1.53-6.74,3.15-4.67,3.92-6.59,9.72-6.85,15.67-.22,5.04.64,12.21,7.01,12.66Z"/>
    <path class="cls-2" d="M345.32,637.4c5.67,2.66,11.54-1.88,15.36-5.71,4.27-4.27,7.22-9.9,6.97-15.93.16-.79.06-1.51-.23-2.16,0-.06-.01-.11-.02-.17-.15-.8-.63-1.26-1.22-1.44-.95-.81-2.2-1.37-3.39-1.6-2.48-.48-5.04-.3-7.42.52-5.77,1.98-9.64,6.7-12.03,12.16-2.02,4.62-3.79,11.62,1.99,14.33Z"/>
    <path class="cls-2" d="M445.27,612.81c2.33-5.81-2.54-11.41-6.59-15.01-4.51-4.01-10.3-6.64-16.31-6.03-.8-.12-1.51.03-2.14.35-.06.01-.11.02-.17.03-.79.19-1.22.71-1.37,1.3-.76.99-1.24,2.28-1.4,3.48-.34,2.5,0,5.04.95,7.38,2.31,5.65,7.25,9.24,12.83,11.3,4.73,1.75,11.82,3.12,14.2-2.81Z"/>
    <path class="cls-2" d="M451.91,674.73c-.51-6.24-7.37-9.07-12.6-10.48-5.83-1.58-12.18-1.34-17.29,1.89-.77.25-1.34.7-1.76,1.27-.04.04-.09.07-.14.11-.62.52-.78,1.18-.64,1.77-.23,1.23-.09,2.59.3,3.74.81,2.39,2.25,4.52,4.15,6.18,4.59,4.02,10.61,5.02,16.53,4.37,5.01-.55,11.97-2.49,11.44-8.86Z"/>
    <path class="cls-2" d="M494.37,650.43c-3.58-5.14-.08-11.69,3.05-16.1,3.49-4.92,8.54-8.78,14.54-9.54.75-.29,1.48-.31,2.17-.14.06,0,.11,0,.17,0,.81,0,1.35.41,1.62.96.96.8,1.72,1.94,2.15,3.08.89,2.36,1.14,4.91.74,7.41-.98,6.02-4.99,10.63-9.97,13.9-4.21,2.77-10.82,5.69-14.46.45Z"/>
    <path class="cls-2" d="M578.78,631.71c5.53,2.94,11.61-1.31,15.62-4.95,4.47-4.05,7.7-9.53,7.74-15.58.2-.78.13-1.51-.12-2.17,0-.06,0-.11-.02-.17-.11-.81-.57-1.29-1.15-1.5-.91-.86-2.13-1.48-3.31-1.77-2.45-.6-5.02-.55-7.44.16-5.86,1.69-9.96,6.23-12.61,11.56-2.24,4.51-4.36,11.42,1.29,14.41Z"/>
    <path class="cls-2" d="M654.62,568.33c.19-6.26-6.3-9.84-11.34-11.83-5.61-2.22-11.95-2.7-17.39-.07-.79.16-1.41.54-1.89,1.07-.05.03-.1.06-.15.09-.68.45-.91,1.08-.84,1.69-.37,1.19-.38,2.57-.12,3.75.54,2.47,1.72,4.74,3.42,6.61,4.11,4.51,9.98,6.19,15.94,6.21,5.04.02,12.17-1.13,12.37-7.52Z"/>
    <path class="cls-2" d="M663.31,491.77c-4.38,4.48-2.02,11.51.33,16.39,2.63,5.43,6.97,10.08,12.75,11.82.69.41,1.41.56,2.11.5.06,0,.11.02.17.03.8.13,1.4-.18,1.76-.68,1.08-.63,2.02-1.63,2.63-2.68,1.27-2.18,1.94-4.66,1.95-7.18.03-6.1-3.16-11.31-7.52-15.36-3.7-3.43-9.72-7.41-14.19-2.84Z"/>
    <path class="cls-2" d="M688.24,443.27c4.56,4.29,11.55,1.8,16.38-.65,5.38-2.73,9.94-7.16,11.57-12.98.4-.7.53-1.42.45-2.12,0-.06.02-.11.03-.17.11-.81-.21-1.4-.71-1.75-.65-1.07-1.67-1.99-2.73-2.58-2.2-1.23-4.69-1.85-7.22-1.81-6.1.09-11.25,3.37-15.21,7.82-3.35,3.76-7.22,9.86-2.57,14.24Z"/>
    <path class="cls-2" d="M675.79,368.7c-4.56,4.29-11.55,1.8-16.38-.65-5.38-2.73-9.94-7.16-11.57-12.98-.4-.7-.53-1.42-.45-2.12,0-.06-.02-.11-.03-.17-.11-.81.21-1.4.71-1.75.65-1.07,1.67-1.99,2.73-2.58,2.2-1.23,4.69-1.85,7.22-1.81,6.1.09,11.25,3.37,15.21,7.82,3.35,3.76,7.22,9.86,2.57,14.24Z"/>
    <path class="cls-2" d="M621,300.62c1.02,6.18-4.95,10.59-9.68,13.22-5.27,2.94-11.49,4.25-17.23,2.36-.8-.06-1.47-.35-2.02-.81-.05-.03-.11-.04-.16-.07-.73-.36-1.04-.95-1.05-1.57-.52-1.14-.72-2.49-.62-3.7.21-2.51,1.08-4.93,2.52-7,3.48-5.01,9.08-7.45,14.98-8.25,4.99-.68,12.21-.48,13.25,5.82Z"/>
    <path class="cls-2" d="M541.05,289.15c-4.54,4.31-11.54,1.84-16.38-.59-5.39-2.71-9.97-7.12-11.62-12.94-.4-.7-.53-1.42-.46-2.12,0-.06-.02-.11-.03-.17-.11-.81.21-1.4.71-1.75.65-1.07,1.66-1.99,2.72-2.59,2.2-1.24,4.69-1.87,7.21-1.84,6.1.06,11.26,3.33,15.24,7.76,3.37,3.75,7.26,9.84,2.62,14.23Z"/>
    <path class="cls-2" d="M471.7,294.55c-2.36,5.8-9.75,6.44-15.16,6.22-6.03-.24-12.02-2.38-15.92-6.99-.65-.47-1.07-1.07-1.3-1.74-.03-.05-.07-.09-.1-.14-.44-.69-.39-1.36-.08-1.88.15-1.24.69-2.5,1.41-3.48,1.49-2.03,3.5-3.64,5.81-4.65,5.58-2.46,11.63-1.61,17.08.78,4.62,2.03,10.67,5.97,8.26,11.88Z"/>
    <path class="cls-2" d="M393.92,344.16c3.42,5.24-.26,11.68-3.53,16.01-3.64,4.82-8.8,8.52-14.82,9.1-.76.27-1.49.27-2.17.07-.06,0-.11,0-.17,0-.81-.03-1.34-.45-1.59-1.01-.94-.83-1.66-1.99-2.06-3.14-.82-2.39-.99-4.95-.51-7.42,1.16-5.99,5.31-10.48,10.38-13.59,4.3-2.64,10.98-5.37,14.47-.02Z"/>
    <path class="cls-2" d="M328.5,428.66c-6.26.23-9.88-6.25-11.9-11.27-2.26-5.6-2.77-11.94-.17-17.39.16-.79.54-1.42,1.06-1.9.03-.05.06-.1.09-.15.45-.68,1.08-.91,1.68-.85,1.19-.38,2.56-.4,3.75-.15,2.47.53,4.75,1.7,6.63,3.38,4.53,4.08,6.25,9.94,6.3,15.9.05,5.04-1.06,12.18-7.44,12.41Z"/>
    <path class="cls-2" d="M312.23,475.02c-2.92,5.54-10.34,5.44-15.7,4.69-5.98-.84-11.73-3.55-15.16-8.53-.61-.53-.96-1.17-1.12-1.86-.03-.05-.06-.1-.08-.15-.37-.73-.25-1.39.11-1.88.27-1.22.93-2.42,1.75-3.32,1.69-1.88,3.84-3.27,6.24-4.06,5.8-1.89,11.73-.45,16.92,2.47,4.39,2.47,10.02,6.99,7.04,12.64Z"/>
    <path class="cls-4" d="M592.6,365.42c-66.61-44.67-179.02-23.65-201.74,60.49-11.7,43.32,5.85,89.46,42.64,114.82,4.25,2.93,8.25-4,4.04-6.91-7.4-5.1-13.97-11.17-19.6-17.95.47-.06.93-.14,1.38-.26,6.12-1.68,8.79-7.67,7.68-13.53-2.13-11.23-4.26-22.46-6.39-33.69.33-.59.63-1.2.88-1.84,1.68-1.36,2.93-3.18,3.31-5.38.19-1.08.41-2.17.65-3.25,12.61-24.01,36.18-41.77,62.73-47.36,32.31-6.81,66.25,4.96,87.91,29.64,11.51,13.11,18.73,29.34,21.69,46.46.38,2.19,1.62,4.02,3.31,5.38-4,10.63-9.1,20.9-15.23,30.24-2.06,3.14-2.23,6.22-1.24,8.84-1.01,1.13-2.09,2.18-3.25,3.15-2.62,2.18-2.43,6.97,0,9.19.18.17.37.32.56.47-4.72,2.68-9.78,4.89-15.21,6.5-4.92,1.46-2.83,9.19,2.13,7.71,40.07-11.92,62.36-52.03,66.99-91.47,4.63-39.41-9.7-78.74-43.26-101.25Z"/>
    <path class="cls-7" d="M410.49,298.8c-1.62-5.88-8.64-10.6-14.76-8.38-34.05,12.35-64.64,33.21-87.81,61.15-4.13,4.99-4.88,12.09,0,16.97,4.26,4.26,12.81,5.01,16.97,0,20.49-24.71,46.97-44.01,77.22-54.97,6.09-2.21,10.2-8.16,8.38-14.76Z"/>
  </g>
  <g id="Outlines">
    <ellipse class="cls-6" cx="512" cy="505.11" rx="285.51" ry="278.62"/>
    <path d="M509.69,407.25c1.93,0,1.93-3,0-3s-1.93,3,0,3h0Z"/>
    <path d="M509.81,414.26c30.66.29,59.56,18.97,71.02,47.69,11.36,28.48,6.27,65.65-21.52,82.66-14.58,8.92-31.74,11.49-48.59,11.19-16.34-.29-34.27-1.97-49.09-9.39-26.76-13.4-37.63-45.37-29.09-73.25,10.06-32.82,43.54-56.74,77.27-58.89,9.59-.61,9.66-15.62,0-15-36.01,2.3-71.6,24.61-87.01,57.77-14.91,32.08-9,72.42,19.74,94.95,15.26,11.96,34.38,16.1,53.29,17.93,20.18,1.95,41.13,1.13,60.04-6.82,17.75-7.46,31.7-20.61,39.17-38.47,7.26-17.36,8.23-36.93,3.87-55.16-9.77-40.9-47.28-69.81-89.1-70.2-9.65-.09-9.66,14.91,0,15h0Z"/>
  </g>
</svg>