<?xml version="1.0" encoding="UTF-8"?>
<svg xmlns="http://www.w3.org/2000/svg" viewBox="0 0 1024 1024">
  <defs>
    <style>
      .cls-1 {
        fill: #337257;
      }

      .cls-2 {
        fill: #003622;
      }

      .cls-3 {
        fill: #d85c45;
      }

      .cls-4 {
        fill: #8b0608;
      }

      .cls-5 {
        fill: #ffe8b1;
      }

      .cls-6 {
        fill: #001f10;
      }

      .cls-7 {
        fill: #ffd377;
      }

      .cls-8 {
        fill: #a91111;
      }
    </style>
  </defs>
  <g id="Colors">
    <path class="cls-2" d="M593.43,421.42c-1.2-8.86-2.35-17.79-6.48-25.86-3.69-7.23-9.88-13.09-15.11-19.2-19.94-23.31-40.36-53.48-32.77-85.77,1.05-4.46-.58-10.96-5.28-12.99-9.67-4.16-19.46-7-30.01-7.79-5.7-.42-11.14,1.25-14.25,6.44-2.91,4.85-1.48,9.85-1.74,15.14-.34,6.99-1.28,16.11-4.82,22.2-2.87,4.94-8.83,6.08-14.16,6.49-4.69.36-10.5-.59-14.69,1.86-4.28,2.5-7.64,7.63-10.87,11.34-6.44,7.42-12.59,15.08-18.56,22.88-11.31,14.79-22.92,30.38-30.32,47.56-4.79,11.12-6.51,22.42-7.72,34.41-1.13,11.32-2.25,22.65-3.37,33.97-.44,4.47,3.86,10.41,8.44,11.09,16.06,2.37,32.27,4.3,48.17,7.65,8.47,1.78,16.92,3.72,25.6,4.08,8.33.35,16.66-.61,24.96-1.09,17.15-.99,34.35-.94,51.5.16,16.63,1.07,32.42,3.66,48.2-3.28,3.83-1.68,5.67-6,5.59-10.14.06-.41.11-.82.13-1.24,1.04-19.38.18-38.7-2.43-57.92ZM455.29,389.02c-1.92,8.01-6.4,15.99-9.58,23.57-5.4,12.88-10.8,25.75-16.2,38.63-1.37.25-2.73.61-4.08,1.04-.83-4.77.02-9.57.83-14.33,1.8-10.62,3.71-21.27,6.94-31.57,2.84-9.08,6.98-17.75,13.13-25.06,1.7,1.18,3.86,1.86,6.45,1.78,1.69-.06,2.29-.14,3,1.69.32.81-.06,2.57-.47,4.25Z"/>
    <path class="cls-2" d="M578.53,707.94c-3.15,0-5.78,1.2-7.73,3.11-1.61-.58-3.32-.89-5.03-.95-7.71-.27-15.66,2.43-23.2,3.75-15.27,2.69-30.79,3.9-46.29,3.91-15.19.01-30.41-1.09-45.39-3.63-8-1.35-15.94-3.04-23.79-5.08-5.51-1.43-12.52-2.36-16.4-6.56-5.4-5.83-17.97-3.57-19.22,5.07-4.73,32.81-6.9,65.88-5.85,99.02.48,15.17-.45,32.94,9.15,45.65,9.03,11.97,23.08,17.7,37.54,19.94,16.1,2.5,32.43,3.82,48.62,5.62,16.37,1.82,32.74,3.92,49.15,5.42,14.83,1.36,29.68-1.87,39.49-13.86,9.7-11.85,12.91-26.31,13.44-41.35.3-8.6-.04-17.19.39-25.79.45-8.86,1.29-17.7,2.01-26.54,1.54-18.75,3.08-37.51,4.61-56.26.51-6.2-5.65-11.5-11.5-11.5Z"/>
    <path class="cls-5" d="M601.7,686.15c-.7-2.56-2.15-4.54-4.01-5.94-5.98-55.27-5.81-111.05.54-166.28.26-2.23-.44-4.35-1.69-6.15.62-1.36.97-2.9.97-4.6,0-5.73-5.28-12.13-11.5-11.5-62.28,6.32-125.38,4.78-187.21-5.19-6.76-1.09-15.17,2.92-14.56,11.09,4.03,53.85,4.71,107.93,1.91,161.86-.58,11.14-3.55,25.31,4.79,34.44,4.49,4.92,10.33,6.38,16.72,6.94,6.28.55,12.53.99,18.79,1.82,26.16,3.47,52.03,6.64,78.47,6.59,29.78-.05,59.54-3.16,88.75-8.94,6.1-1.21,9.59-8.47,8.03-14.15Z"/>
    <path class="cls-8" d="M532.68,198.92c.18-7.79.35-15.59.53-23.38.09-3.9.18-7.79.27-11.69.02-.75.16-1.73.26-2.7.41-.18.81-.38,1.19-.62,2.12-1.19,3.92-2.84,5.26-4.87,2.68-4.05,3.49-8.49,3.96-13.26.9-9.04,1.12-18.2,1.65-27.27.19-3.2-1.24-6.05-3.45-8.12-2.21-2.73-5.71-4.5-9.21-4.65-9.56-.41-19.13-.63-28.71-.6-9.4.03-19.61-.6-28.89,1.14-19.79,3.71-19.45,30.43-14.76,45.53,2.53,8.16,2.34,16.75,2.83,25.23.52,9.13,1.05,18.25,1.57,27.38,1.09,19,2.18,38.01,3.27,57.01.35,6.07,4.99,11.69,11.5,11.5,16.73-.49,33.53-1.44,50.27-1.01,12.59.33,14.46-16.25,5.64-21.46.21-3.23-1.02-6.54-3.25-9.26-1.93-2.35-.57-11.17-.5-14.57l.55-24.35ZM528.04,162.47c-1.11-.3-.79-.48.91-.53l-.91.53Z"/>
    <path class="cls-4" d="M564.5,139.01c-.08-.44-.21-.82-.38-1.17-.16-2.84-.33-5.68-.49-8.52.87-5.55.65-11.1-.63-16.7-.26-1.15-.86-1.98-1.62-2.5-.37-1.16-.85-2.27-1.5-3.29-1.46-2.26-4.93-2.79-6.89-1.2-1.04-1.78-3.27-2.52-5.19-2.01-.07-.82-.14-1.63-.2-2.45-.44-5.74-9.44-5.79-9,0,1.31,17.11,2.94,33.39-4.73,49.38-1.98,4.13,2.51,7.86,5.69,6.6-.04.13-.08.26-.12.39-.18.71-.2,1.36-.1,1.95-.66.07-1.25.3-1.76.64-1.72-3.72-8.53-3.07-8.6,1.97-.56,36.39-.53,72.8.1,109.19.09,5.1,7.09,5.71,8.68,1.8,1.91.28,3.98-.37,5.86-.77,5.88-1.25,9.25-3.14,9.6-8.79.6-.7,1.03-1.64,1.14-2.84.13-1.49.22-2.98.28-4.47,1.86-.28,3.45-1.67,3.39-4.27-.15-6.23-.28-12.47-.3-18.7.14-1.3.27-2.61.4-3.91.95-9.77,1.31-19.58,1.17-29.39-.03-2.02-1.01-3.3-2.32-3.91.39-3.25.69-6.49.88-9.74.68-7.52,1.01-15.05.46-22.62-.09-1.29-.56-2.27-1.22-2.98-.55-2.71-2.69-4.31-5.6-3.76-.36.07-.7.17-1.01.3.82-2.09,1.52-4.21,2.04-6.39,1.48-.14,2.94-.93,3.75-2.34,1.89,3.08,7.3,3.54,8.18-.85.6-3,.6-5.64.04-8.65Z"/>
    <path class="cls-6" d="M637.01,471.78c-.09-1.87-.54-3.35-1.56-4.72.13-.22.24-.49.32-.82,2.17-3.08-.68-6.32-3.76-6.65-.19-1.96-.37-3.92-.57-5.88,1.98-.17,3.76-1.56,3.74-4.3-.04-8.02-.47-16.01-1.41-23.97-.61-5.19-.08-14.48-5.65-17.06-.22-.1-.44-.19-.66-.26-.64-2.65-1.54-5.23-2.9-7.69-.5-.9-1.17-1.49-1.9-1.84-6.28-17.76-18.91-30.82-34.24-41.86-.11-.08-.22-.15-.34-.22-.64-2.42-1.3-4.84-2.02-7.24-.81-2.73-3.53-3.64-5.74-2.97-.15-.34-.28-.69-.43-1.03-.27-.6-.64-1.06-1.08-1.41-1.46-3.98-3.69-7.45-7.77-7.72-1.58-5.87-3.15-11.73-4.73-17.6-1.04-3.88-6.12-4.17-8.1-1.21-.35-2.45-.7-4.91-1.03-7.36-.5-7.61-1.33-15.19-2.49-22.73-.3-2.63-.59-5.26-.92-7.89-.4-3.17-3.21-4.66-5.59-4.26-1.72-2.04-5.47-1.93-7.2.33-.64.21-1.22.6-1.7,1.2.02-.52.03-1.04.04-1.56.13-5.79-8.87-5.79-9,0-.36,15.78-2.4,32.74,1.2,48.26,2.87,12.36,10.33,22.83,18.3,32.44,8.14,9.81,17.19,19.03,23.23,30.37,7.43,13.94,9.6,30.03,10.94,45.56,1.63,19.03,2.19,38.13,1.81,57.22-.12,5.79,8.88,5.79,9,0,.02-1.14.03-2.29.05-3.43.09.03.19.05.28.07.31.42.64.83.98,1.24,1.88,2.26,5.59,1.38,7.06-.86,6.62-.66,12.96-3.11,19.44-4.85.15.05.3.1.46.14,2.86.66,5.32-.13,7.02-1.66.47-.06.95-.12,1.42-.16,2.75-.24,4.17-2.43,4.28-4.59.76-.77,1.23-1.8,1.17-3.02ZM546.52,336.08c.19-.01.37-.04.55-.07.09.48.18.97.28,1.45-.29-.45-.56-.92-.83-1.38ZM611.39,429.73c-.1.02-.2.05-.3.07-.05-.03-.09-.07-.14-.1-.06-.86-.12-1.72-.17-2.58.2.87.41,1.74.61,2.6Z"/>
    <path class="cls-6" d="M626.34,721.03c.85-4.13,1-8.36.97-12.74-.03-4.65-6.59-6.02-8.49-2.14-.37-.05-.76-.05-1.18-.01-1.79-2.47-6.78-2.59-8.35,1.24-.24.59-.47,1.19-.69,1.79-.86.52-1.56,1.3-1.9,2.38-.04.11-.07.22-.11.33-.81.06-1.59.37-2.25.94-.1-4.12-5.02-4.79-7.56-2.35-.95.11-1.82.53-2.43,1.33,0-.06,0-.12,0-.18-.27-5.77-9.27-5.8-9,0,.68,14.67-.73,29.26-1.47,43.89-.72,14.3-.56,28.62-.8,42.93-.23,14.47-.82,29.01-3.32,43.29-2.18,12.47-5.34,26.79-17.65,33.01-5.17,2.61-.62,10.38,4.54,7.77.32-.16.61-.34.92-.51,1.24.9,2.92,1.17,4.65.15.73-.43,2.99.28,3.93.23,1.69-.08,3.2-.58,4.72-1.32,2.09-1.01,4.29-3.41,6.69-3.36.15,0,.27-.02.42-.03.64,2.09,2.21,3.6,5.13,4.14,6.64,1.23,11-6.53,14.17-11.15,1.75-2.55,3.33-5.18,4.77-7.9.37-.53.72-1.04,1.04-1.51,1.6-2.37,3.85-5.83,4.97-9.29,2.78.99,6.24-.18,5.87-3.94-.39-3.94-.92-7.84-1.58-11.73.02-1.37.07-2.74.09-4.11.18-.47.31-.98.35-1.58.28-4.21.15-8.44-.13-12.67.01-.82.02-1.65.04-2.47.17-10.63.33-21.27.5-31.9.42-4.99.88-9.99,1.27-14.98,1.97-14.87,2.94-29.82,2.8-44.85-.01-1.12-.36-2.01-.91-2.7Z"/>
    <path class="cls-1" d="M455.53,376.82c-7.1-4.15-14.67-1.1-19.15,5.02-12.99,17.74-20.14,38.64-22.22,60.43-.72,7.54,6.95,14,14,14,8.17,0,13.28-6.44,14-14,1.55-16.17,8.22-32.39,18.4-46.29,4.47-6.1,1.03-15.62-5.02-19.15Z"/>
    <path class="cls-1" d="M492.75,283.94c-.67-7.53-5.96-14-14-14-5.76,0-11.88,4.28-13.58,9.97-3.2,1.7-5.73,4.63-6.92,8.49-.82,2.68-1.6,5.37-2.33,8.07-.43,1.6-.56,3.25-.43,4.86-4.38,1.34-8.02,4.62-9.35,9.46-1.92,6.98,2.35,15.63,9.78,17.22,11.65,2.5,27.22,1.77,33.72-9.94,2.73-4.92,2.95-11.02,3.34-16.5.42-5.88.29-11.76-.23-17.63Z"/>
    <path class="cls-3" d="M490.97,127.6c-.03-4.7-1.03-9.65-5.86-11.61-2.12-.86-4.77-1.22-6.88-.15-2.04,1.04-3.2,3.25-3.54,5.44-.43,2.74-.4,5.58-.5,8.34-.1,2.6-.16,5.21-.21,7.81-.33.81-.27,1.77.51,2.59,1.65,1.73,4.05,2.4,6.39,2.26,2.33-.13,5.18-.49,7.09-1.93,4.02-3.03,3.02-8.39,3-12.76Z"/>
    <path class="cls-7" d="M633.97,606.41c1.69-1.85,2.77-4.3,2.76-7.29-.03-16.59-.06-33.17-.09-49.76,0-2.89-1.16-5.58-3.01-7.63.04-5.38.09-10.75.13-16.13,0-1-.13-1.98-.39-2.92.29-2.07.59-4.15.88-6.22.43-3.06.06-6.13-1.23-8.67.04-1.02.08-2.04.11-3.06,7.63-8.44-2.12-23.73-13.26-18.2-4.86-.27-9.9,2.09-11.64,7.45-5.35-8.15-21.23-6.09-21.26,6.22-.17,65.24-.34,130.47-.51,195.71-.04,14.12,20.88,14.78,22.84,1.94,6.13,8.35,20.93,4.05,20.7-6.92-.27-12.36-.53-24.72-.8-37.08-.04-1.98-.59-3.87-1.52-5.52,0-.7,0-1.4-.01-2.1,1.81-1.83,3.08-4.41,3.32-7.76.4-5.46.65-10.93.77-16.39.48-1.24.81-2.6,1-4.04.51-3.87.9-7.75,1.2-11.63ZM610.32,579.96c0,.47.03.93.09,1.39-.23.28-.44.57-.64.87.02-6.03.03-12.07.05-18.1.2.18.41.34.63.51-.04,5.11-.08,10.22-.12,15.33Z"/>
  </g>
  <g id="Outlines">
    <path d="M515.8,99.5c1.93,0,1.93-3,0-3s-1.93,3,0,3h0Z"/>
    <path d="M515.76,91.54c-12.86.58-26.04.38-38.81,1.98-11.2,1.4-19.63,7.95-24.03,18.34-4.08,9.65-4.94,22.16-3.71,32.52,1.34,11.22,9.44,18.15,20.16,20.4,11.38,2.38,23.53,2.65,35.12,2.65,12.43,0,24.82-.98,37.13-2.74,10.11-1.44,25.56-1.83,31.77-11.37,5.76-8.85,5.07-22.58,4.09-32.61-.57-5.93-1.54-11.83-5.18-16.72-3.62-4.88-9.1-7.48-14.89-8.89-13.89-3.38-28.61-4.23-42.84-3.47-5.32.29-9.81,6.28-6.48,11.29,2.45,3.68,5.53,3.67,9.39,3.86l-6.48-3.71.15.22c5.33,8,18.32.49,12.95-7.57-2.45-3.68-5.53-3.67-9.39-3.86l6.48,3.71-.15-.22c-2.16,3.76-4.32,7.52-6.48,11.29,9.66-.52,19.38-.29,28.96,1.09,7.17,1.03,16.63,1.23,18.45,9.59,1.66,7.64,1.87,17.77-.19,25.35-.85,3.14-2.35,3.47-5.41,4.18-4.94,1.15-9.96,2.04-14.98,2.83-18.76,2.95-37.98,3.49-56.9,1.96-5.39-.43-15.68-.12-19.27-5.18-1.92-2.71-1.38-6.92-1.29-10.03.12-4.52.19-9.12,1.16-13.55.86-3.94,2.29-7.86,5.17-10.78,3.24-3.27,7.53-3.78,11.94-4.04,11.17-.65,22.36-1.01,33.54-1.51,9.61-.43,9.67-15.43,0-15h0Z"/>
    <path d="M555.35,160.35c8.12,53.83-17.29,109.26,4.85,161.63,4.93,11.67,12.13,21.88,21.32,30.6s19.52,15.92,28.14,25.12c16.74,17.88,20.92,42.71,21.68,66.33.91,28.34-.95,56.88-1.73,85.21-.85,30.62-1.69,61.25-2.54,91.87-1.68,60.86-3,121.74-5.06,182.58-.68,20.01-1.97,44.43-16.52,59.85-17.34,18.38-45.91,13.76-68.47,11.78-29.76-2.61-59.6-4.82-89.32-7.86-11-1.13-22.63-2.83-32.44-8.24-9.97-5.49-15.84-14.56-18.43-25.49s-2.16-23.16-1.71-34.68c.59-15.21,1.12-30.41,1.5-45.62.77-30.42,1.08-60.86.92-91.29s-.78-60.86-1.86-91.28-3.04-58.68-4.23-88.03c-1.07-26.24-.73-53.18,8.44-78.13,8.96-24.36,27.88-42.79,42.76-63.48,30.75-42.77,33.55-96.03,29.19-146.79-1.11-12.86-2.63-25.68-4.22-38.48-.5-4.02-3.09-7.5-7.5-7.5-3.66,0-8,3.45-7.5,7.5,6.3,50.62,13.48,107.23-9.3,154.97-11.37,23.83-30.62,42.07-44.93,63.96-15.31,23.41-21.09,50.63-22.14,78.26-1.09,28.64,1.82,57.41,3.14,86,1.44,31.06,2.39,62.14,2.86,93.24s.46,63.51-.07,95.26c-.25,15.21-.62,30.43-1.11,45.64-.45,14.22-1.55,28.51-1.21,42.74.3,12.32,2.02,24.92,7.81,35.96,5.45,10.39,14.63,18.12,25.31,22.74,11.48,4.97,23.89,6.7,36.25,7.9,15.37,1.5,30.77,2.71,46.15,4.06,15.21,1.33,30.41,2.66,45.62,3.99,13.23,1.16,26.47,2.32,39.7.5,12.45-1.72,24.25-6.37,33.49-15.1,7.92-7.49,13.16-17.35,16.52-27.63,8.04-24.58,6.52-52.05,7.23-77.55.87-31.29,1.73-62.58,2.6-93.87,1.74-62.91,3.48-125.82,5.22-188.73.73-26.39,2.55-53.51-3.65-79.44-2.84-11.88-7.63-23.57-14.93-33.43-7.77-10.5-17.82-18.5-27.68-26.91-9.83-8.39-18.32-17.28-24.03-29.01-5.1-10.46-7.79-22.25-8.95-33.79-2.87-28.51,2.64-56.78,4.66-85.14,1.06-14.82.88-29.52-1.34-44.23-.6-4-5.66-6.24-9.23-5.24-4.28,1.2-5.85,5.19-5.24,9.23h0Z"/>
    <path d="M552.57,262.81c-28.36,4.28-57.44,3.14-85.42-3.07-9.41-2.09-13.42,12.37-3.99,14.46,30.79,6.83,62.23,7.77,93.4,3.07,4-.6,6.24-5.66,5.24-9.23-1.2-4.28-5.19-5.85-9.23-5.24h0Z"/>
    <path d="M630.15,474.61c-17.34,8.31-37.27,9.81-56.15,11.47-20.57,1.81-41.23,2.69-61.88,2.65-41.3-.09-82.53-3.91-123.13-11.44-9.44-1.75-13.48,12.7-3.99,14.46,66.37,12.31,134.38,15.27,201.52,8.11,17.66-1.88,35.04-4.56,51.2-12.3,8.7-4.17,1.1-17.11-7.57-12.95h0Z"/>
    <path d="M624.98,692.26c-75.66,18.48-155.34,18.04-230.8-1.24-9.36-2.39-13.35,12.07-3.99,14.46,78.07,19.95,160.5,20.36,238.77,1.24,9.37-2.29,5.4-16.76-3.99-14.46h0Z"/>
  </g>
</svg>