<?xml version="1.0" encoding="UTF-8"?>
<svg xmlns="http://www.w3.org/2000/svg" viewBox="0 0 1024 1024">
  <defs>
    <style>
      .cls-1 {
        fill: #f6bb4a;
      }

      .cls-2 {
        fill: #43c708;
      }

      .cls-3 {
        fill: #30ac01;
      }

      .cls-4 {
        fill: #d27510;
      }

      .cls-5 {
        fill: #dc2e04;
      }

      .cls-6 {
        fill: #a33e00;
      }

      .cls-7 {
        fill: #e5971e;
      }

      .cls-8 {
        fill: #8f3400;
      }

      .cls-9 {
        fill: #ffd67c;
      }
    </style>
  </defs>
  <g id="Colors">
    <path class="cls-1" d="M729.97,375.88c-1.87-6.79-8.76-10.2-15.38-8.73-24.07,5.33-47.13,14.63-70.26,22.98-21.54,7.77-43.07,15.54-64.61,23.31-2-11.89-2.84-23.87-8.55-34.98-3.19-6.21-5.42-10.64-7.54-17.26-2.47-7.68-5.54-14.92-11.25-20.76-2.76-16.39-12.55-30.93-20.68-45.21-7.26-12.74-14.11-29.04-26.35-38.17-1.94-9.84-6.9-18.65-13.77-25.9-2.78-2.93-4.32-4.83-6.2-8.35-2.81-5.28-6.89-8.46-12.53-10.45-10.12-3.59-23.41-3.22-32.17,3.47-7.69,5.88-12.83,16.59-17.53,24.9-20.69,36.59-28.91,77.85-42.68,117.18-7.6,21.72-16.06,43.12-25.42,64.15-1.5,3.37-1.88,7.06-.91,10.32-29.29,50.21-45.35,106.45-63.89,161.16-4.67,13.79-9.53,27.52-14.84,41.08-2.36,6.03-4.81,12.03-7.41,17.96-3.18,7.24-7.47,14.51-9.37,22.22-4.09,16.54,5.48,31.05,15.66,43.12,8.86,10.5,19.73,19.3,31.18,26.83,24.12,15.86,51.53,24.52,77.93,35.64,27.04,11.39,51.88,29.11,81.7,32.48,28.39,3.2,55-10.99,73.56-31.73,20.31-22.69,31.57-51.38,45.6-77.99,28.69-54.45,64.6-110.48,68.13-173.09,9.85-2.36,14.73-17.11,19.1-26.09,5.53-11.37,10.86-22.84,16.43-34.2,5.42-11.05,11.06-22.01,17.32-32.61,6.38-10.81,15.98-21.22,19.01-33.61,1.15-4.68-.62-9.12-3.7-12.13.23-.05.46-.11.69-.16,6.59-1.46,10.45-9.1,8.73-15.38Z"/>
    <path class="cls-7" d="M765.34,361.45c-7.8-.71-15.19,1.38-21.68,5.21-1.2-3.57-4.39-6.7-7.77-7.62-6.35-1.75-11.21,2.18-13.53,7.68-31.35,74.38-64.98,147.78-99.48,220.74-17.32,36.62-34.87,73.14-52.49,109.62-8.17,16.91-16.05,34.01-24.69,50.69-6.75,13.02-14.27,25.97-25.08,36.07-13.91,13-30.85,14.72-49.16,15.21-18.08.49-37.26.73-53.15-9.13-.75-.46-1.49-.81-2.22-1.08-2.16-1.33-4.47-2.47-6.28-3.62-1.94-1.23-3.86-2.51-5.85-3.66-.74-.43-1.5-.81-2.25-1.22-.43-.24-2.22-1.66-1.92-.84-.73-1.96-2.07-3.22-3.63-3.87.52-3.02-1.2-6.67-5.18-6.99-13.8-1.09-25.9-8.97-38.59-13.78-7.29-2.77-14.84-4.13-21.77-7.85-6.81-3.66-13.41-7.75-19.93-11.9-12.36-7.86-25.75-15.99-36.1-26.48-10.23-10.37-13.03-24.56-14.85-38.51-.9-6.92-11.92-7.01-11,0,1.1,8.44,2.45,16.94,5.15,24.9-2.61.98-4.62,3.73-3.54,6.81-.31,1.18-.25,2.52.4,3.88.3.64.57,1.29.86,1.93-1.63,1.11-2.64,3.1-1.99,5.74.12.48.26.96.38,1.44-.75,2.46-.12,5.15.62,7.7.39,1.35.81,2.69,1.25,4.03-1.71,3.23-2.21,7.16-1.57,11.08,2.59,15.77,10.27,30.57,21.13,42.24,11.64,12.52,27.77,20.55,42.42,28.96,30.45,17.49,62.98,31.67,96.61,41.87,9.23,2.8,18.61,5.08,28.16,6.47,10.47,1.52,21.64,3.11,31.9-.42,1.93-.67,3.69-1.67,5.2-2.92,3.15,5.6,8.48,9.87,15.88,11.01,8.83,1.35,16.54-2.24,21.88-8.18,1.55.24,3.13.35,4.71.33.47.39.97.75,1.52,1.08,8.16,4.95,19.77.05,27.01-4.63,7.62-4.93,13.78-11.64,18.69-19.23,10.61-16.4,13.21-36.04,19.01-54.31,5.54-17.43,16.09-32.45,26.2-47.49,10.93-16.26,19.93-32.7,26.54-51.19,3.23-9.03,6.07-18.24,9.93-27.03,4.07-9.29,9.14-18.11,14.2-26.89,21.08-36.58,37.35-75.38,54.26-114l59.28-135.32c3.48-7.95-.65-15.75-9.5-16.55Z"/>
    <path class="cls-4" d="M515.22,589.58c-.5-1.55-1.37-2.89-2.58-4.02-1.13-1.22-2.47-2.08-4.02-2.58-1.49-.78-3.09-1.14-4.82-1.08-1.11.15-2.22.3-3.32.45-2.12.59-3.96,1.67-5.52,3.21-.65.84-1.3,1.69-1.95,2.53-1.13,1.95-1.7,4.05-1.71,6.31v.6c-.06,1.72.29,3.33,1.08,4.82.5,1.55,1.37,2.89,2.58,4.02,1.13,1.22,2.47,2.08,4.02,2.58,1.49.78,3.09,1.14,4.82,1.08,1.11-.15,2.22-.3,3.32-.45,2.12-.59,3.96-1.67,5.52-3.21.65-.84,1.3-1.69,1.95-2.53,1.13-1.95,1.7-4.05,1.71-6.31v-.6c.06-1.72-.29-3.33-1.08-4.82Z"/>
    <path class="cls-4" d="M604.65,506.48c-.59-2.12-1.67-3.96-3.21-5.52-.84-.65-1.69-1.3-2.53-1.95-1.95-1.13-4.05-1.7-6.31-1.71h-.6c-1.72-.06-3.33.29-4.82,1.08-1.55.5-2.89,1.37-4.02,2.58-1.22,1.13-2.08,2.47-2.58,4.02-.78,1.49-1.14,3.09-1.08,4.82.15,1.11.3,2.22.45,3.32.59,2.12,1.67,3.96,3.21,5.52.84.65,1.69,1.3,2.53,1.95,1.95,1.13,4.05,1.7,6.31,1.71h.6c1.72.06,3.33-.29,4.82-1.08,1.55-.5,2.89-1.37,4.02-2.58,1.22-1.13,2.08-2.47,2.58-4.02.78-1.49,1.14-3.09,1.08-4.82-.15-1.11-.3-2.22-.45-3.32Z"/>
    <path class="cls-4" d="M533.57,655.1h-.37c-16.09,0-16.11,25,0,25h.37c16.09,0,16.11-25,0-25Z"/>
    <path class="cls-4" d="M474.45,703.88c-.59-2.12-1.67-3.96-3.21-5.52-.84-.65-1.69-1.3-2.53-1.95-1.95-1.13-4.05-1.7-6.31-1.71h-.6c-1.72-.06-3.33.29-4.82,1.08-1.55.5-2.89,1.37-4.02,2.58-1.22,1.13-2.08,2.47-2.58,4.02-.78,1.49-1.14,3.1-1.08,4.82.15,1.11.3,2.22.45,3.32.59,2.12,1.67,3.96,3.21,5.52.84.65,1.69,1.3,2.53,1.95,1.95,1.13,4.05,1.7,6.31,1.71h.6c1.72.06,3.33-.29,4.82-1.08,1.55-.5,2.89-1.37,4.02-2.58,1.22-1.13,2.08-2.47,2.58-4.02.78-1.49,1.14-3.1,1.08-4.82-.15-1.11-.3-2.22-.45-3.32Z"/>
    <path class="cls-9" d="M459.24,270.73c-7.21-1.98-12.75,2.48-15.38,8.73-12.52,29.82-24.36,59.9-35.64,90.2-2.36,6.33,2.63,13.7,8.73,15.38,7,1.92,13.01-2.38,15.38-8.73,11.28-30.3,23.13-60.39,35.64-90.2,2.61-6.23-2.82-13.75-8.73-15.38Z"/>
    <path class="cls-8" d="M781.52,351.37c-1.57-5.22-3.3-10.61-6.51-15.08-1.65-2.31-3.55-4.26-5.87-5.9-2.42-1.7-5.26-2.72-7.49-4.68-4-3.53-6.85-7.74-11.28-10.89-3.12-2.21-7.91-4.2-9.04-8.17-.65-2.28-2.12-3.63-3.85-4.23-.06-4.32-.54-10.61-4.73-12.71.32-.49.65-.97,1.01-1.45,5.01-6.71-6.27-13.2-11.23-6.56-9.54,12.79-7.8,29.36-13.24,43.72-2.5,6.59-6.56,13.08-12.73,16.77-6.99,4.18-15.53,4.31-23.4,5.21-8.71,1-16.49,3.34-24.63,6.49-8.69,3.37-17.73,6.72-27.08,7.61-18.17,1.74-35.95-5.51-53.91-7.13-8.33-.75-8.28,12.25,0,13,1.71.15,3.41.36,5.11.59-1.04,1.4-1.45,3.21-.69,5.21,3.03,7.94,6.63,15.57,10.95,22.87.35.72.7,1.45,1.05,2.17,1.97,4.03,6.09,4.01,8.93,1.97.46-.28.89-.63,1.28-1.06.43-.48.83-.97,1.22-1.46,6.66-1.08,12.98-2.85,19.17-5.03,2.48-.35,5.69-1.6,8.86-3.4,2.94-1.21,5.88-2.48,8.84-3.79,5.43-2.4,11.04-4.5,16.71-6.44,15.67-.91,30.2-6.15,45.11-11.27,5.24-1.8,10.53-3.52,15.79-5.31,1.61,1.22,3.76,1.79,5.8,1.32,2.34-.54,4.3-1.7,6.02-3.19,5.11-.57,10.24-1,15.34-1.68,3.56-.47,7.11-1.02,10.62-1.83.26-.06.52-.13.78-.2,1.71.39,3.53.03,5.09-1.04.62-.05,1.23-.09,1.85-.13.42.05.84.13,1.26.26,2.03.64,3.77.31,5.1-.59,3.19-.08,6.55-.02,8.92,2.35,4.51,4.51,12.76-.04,10.86-6.32Z"/>
    <path class="cls-6" d="M708.51,282.05c-.09,1.43-.11,2.95-.16,4.47-4.83.47-9.22,2.93-12.59,6.85-4.78,5.58-5.79,12.89-9.59,18.98-3.2,5.14-8.62,8.71-14.52,9.94-3.07.64-6.06.11-9.15.25-3.91.18-6.63,1.72-9.65,4.02-6.04,4.59-12.26,5.44-19.58,3.41-7.87-2.19-12.08-6.41-16.63-12.89-1.98-2.82-4.3-4.98-6.62-7.46-2.12-2.27-2.74-5.53-5.1-7.88-4.58-4.56-11.15-6.43-17.37-7.32-13.81-1.98-30.66,2.49-37.2,16.1-3.88,8.06,1.41,12.23,4.32,19.12,2.48,5.87,3.53,12.35,7.2,17.69,4.16,6.05,10.39,8.88,17.13,11.2,7.93,2.73,16.09,4.76,24.37,6.09,16.2,2.61,33.61,3.48,49.72-.23,8.63-1.99,16.45-6.22,24.15-10.46,4.12-2.27,8.34-4.45,12.5-6.74,2.18-.98,4.33-1.99,6.45-3.09,2.44-1.27,4.96-2.9,6.63-5.05,5.16-3.87,9.61-8.56,12.08-14.66,1.66-4.11,2.25-8.49,2.99-12.83.42-2.43,1.21-5.18,1.5-7.86,1.37-2.01,1.76-4.79.37-6.86.13-.31.26-.63.39-.94.56-1.43.62-3.18.76-4.69.28-3.04.41-6.09.61-9.14.55-8.35-12.45-8.32-13,0Z"/>
    <path class="cls-5" d="M684.2,281.62c-.06-4.37.02-8.57-3.44-11.71-.42-.38-.72-.65-.95-.85-.39-.61-.74-1.25-1.24-1.8-1.73-1.96-3.8-2.84-6.28-3.5-6.23-1.66-12.86-2.44-19.2-3.63-5.16-.98-10.53-2.42-15.83-2.64-2.22-2.62-6.43-3.88-9.82-1.04-2.19,1.84-4.39,3.67-6.58,5.51-4.73,2.81-8.98,6.61-12.53,10.49-.39.43-.7.87-.96,1.31-.06-.09-.13-.18-.2-.28-1.23-3.52-2.12-7.15-2.66-10.87,1.6-2.04,1.6-4.71.49-7.21-.36-.81-.74-1.62-1.14-2.42,0-.56,0-1.12.03-1.69.12-3.01-1.94-5.09-4.43-5.95-2.5-3.74-5.37-7.24-8.59-10.38-2.78-2.71-6.09-5.92-9.64-7.56-4.55-2.11-10.44.34-15,1.47-9.44,2.34-18.59,5.46-27.35,9.69-4.21,2.03-8.31,4.32-12.25,6.84-3.64,2.33-7.15,5.53-11.3,6.89-4.66,1.52-6.36,7.22-2.87,10.86,6.73,7.02,13.17,14.29,19.3,21.83.3,1.03.61,2.05.96,3.06,1.56,4.5,3.39,10.54,8.23,12.17.12.23.23.46.35.69,3.59,6.84,12.8,1.98,11.82-4.59,6.58.36,12.51-2.12,19.09-3.77,4.63-1.16,9.08-.5,13.31-1.31,1.33.77,2.82.99,4.22.76,1.67,1.64,3.69,2.7,5.86,3.56.64.25,1.41.3,2.2.22,1.01.91,2.24,1.53,3.53,1.68.61.92,1.29,1.82,1.98,2.73,3.2,4.14,6.23,8.45,9.74,12.34,5.98,6.62,13.62,11.7,22.65,12.68,4.2.45,8.4-.12,12.25-1.88,3.8-1.73,6.68-5.53,10.95-6.04.23-.03.45-.04.68-.07.91.14,1.83.07,2.72-.19,6.76-.27,13.3.44,18.26-5.69,6.22-7.68,3.76-20.57,3.62-29.7Z"/>
    <path class="cls-2" d="M733.97,216.64c-7.29-3.63-14.86-6.09-22.95-7.14-5.98-.77-16.94-2.69-20.96,3.26-2.86-.32-5.96.96-7.17,4.4-3.21,9.1-6.34,18.56-6.33,28.32,0,9.39,3.58,17.25,8.25,25.18,1.81,3.07,3.52,7.2,6.86,8.94,2.04,1.06,3.92.81,6.09.97,2,.14,3.66.64,5.61,1.1,1.98.47,4.03.9,6.08.85,2.38-.06,4.24-1.2,6.48-1.62,4.29-.8,8.66,1.02,13.02.5,2.67-.32,5.71-1.78,6.27-4.77,3.26-17.49-1.36-35.22,1.74-52.64.48-2.7-.28-5.99-2.99-7.34Z"/>
    <path class="cls-2" d="M681.76,161.08c-.91.31-1.8.67-2.68,1.06-2.64-2.93-6.21-4.42-10.17-3.92-1.24-2.27-2.23-4.15-4.64-5.52-5.12-2.92-10.96-1.08-15.24,2.37-4.65,3.76-8.58,7.6-14.13,10.12-1.14.52-3.89,1.61-6.76,2.26-3.65-3.05-7.71-5.76-11.85-8.32-1.25-.77-2.77-.98-4.24-.73,0,0,0,0,0-.01-7.76-12.2-24.95-12.94-37.72-9.66-13.54,3.48-22.56,14.63-27.33,27.24-.58-.28-1.16-.48-1.72-.61,0,0,0,0,0,0-1.95-3-5.52-3.75-8.31-2.51-3.25-3.98-4.76-9.36-8.77-12.89-5.32-4.68-12.49-5.5-19.3-5.36-7.52.15-16.21-.46-23.47,1.76-7.02,2.15-11.25,7.44-13.27,14.33-2.21,7.53-3.35,15.57-4.83,23.27-.63,3.24-1.18,6.44.14,9.59,1.47,3.52,4.71,5.37,7.5,7.73,5.77,4.87,10.54,10.59,14.34,17.09,3.25,5.54,6.58,11.47,12.9,13.89,7.64,2.93,14.89-1.18,21.68-4.41,16.24-7.73,32.86-15.11,50.62-18.56,4.06-.79,9.17-2.16,13.33-1.63,2.25.29,2.31.73,3.83,2.75,1.31,1.75,2.61,3.51,3.92,5.26,4.95,6.64,11.87,13.66,13.23,22.11.45,2.82,3.64,4.71,6.27,4.77,7.25.17,14.48-.05,21.69-.64-.1.87-.08,1.77.06,2.7.33,2.15,2.55,4.01,4.54,4.54,2.68.71,5.33.12,7.31-1.86,2.19-2.19,2-5.18,1.73-8.01-.13-1.39-.3-2.77-.5-4.15,2.23-6.69,2.32-13.85,3.75-20.74,1.39-6.69,3.42-13.3,6.24-19.53,2.83-6.24,6.3-12.23,10.39-17.72,3.86-5.19,8.58-11.32,14.91-13.5,7.86-2.71,4.48-15.27-3.46-12.54Z"/>
    <path class="cls-3" d="M700.22,192.07c1.56-4.29-1.86-10.37-7.7-8.89-.76.19-1.5.42-2.23.66,1.77-.93,3.59-1.76,5.47-2.45,7.79-2.86,4.42-15.43-3.46-12.54-14.31,5.25-26.52,15.46-33.4,29.19-3.81,7.62-5.41,15.64-6.81,23.97-1.65,9.86-3.03,19.75-1.93,29.74.54,4.95,5.47,6.95,9.11,5.95,1.97,2.9,6.37,3.41,9.26,1.53,1.69,1.4,4.22,1.97,6.18,1.45,3.77-.99,5.01-4.53,4.54-8-2.71-20.06,3.57-40.45,19.86-53.04,2.25-1.74,2.32-5.14,1.11-7.59Z"/>
    <path class="cls-3" d="M786.86,320.65c-2.29-11.55-4.17-23.3-7.66-34.57-1.62-5.25-3.65-10.43-6.19-15.3-1.21-2.31-2.58-4.53-3.98-6.73-.71-1.12-1.43-2.24-2.15-3.36-.61-1.74-1.22-3.48-1.86-5.22-1.27-3.46-4.75-5.6-8.23-4.47.06-1.14.12-2.28.18-3.42.31-5.79-5.83-7.56-9.79-5.33.15-8.83-.19-17.62-2.35-26.26-2.03-8.11-14.57-4.67-12.54,3.46,2.45,9.8,2.02,19.85,1.69,29.87-.34,10.43-.72,20.86-1.12,31.29-.22,5.57,5.47,7.42,9.39,5.57.19,4.39.91,8.71,2.8,13.02,3.22,7.34,8.49,13.8,13.54,19.96,2.22,2.7,4.5,6.24,7.91,7.53,3.64,1.38,7.24-.54,10.79,1.29,5.22,2.69,10.66-1.72,9.55-7.34Z"/>
  </g>
  <g id="Outlines">
    <path d="M678.4,156.1c1.93,0,1.93-3,0-3s-1.93,3,0,3h0Z"/>
    <path d="M785.47,353.35c-88.25-.47-176.27,25.92-250.16,74.11-74.06,48.29-141.18,121.41-162.14,209.34-11.06,46.4-8.76,96.47,11.45,140.09,16.89,36.46,47.2,67.76,84.25,83.78,19.66,8.5,43.2,14.98,64.46,9.07,21.71-6.03,33.56-25.31,43.34-44.09,24.38-46.79,48.12-93.91,71.34-141.28,46.3-94.46,90.37-190,132.17-286.54,5.14-11.88,10.25-23.78,15.33-35.69,1.6-3.75,1.09-8-2.69-10.26-3.14-1.88-8.68-1.03-10.26,2.69-39.73,93.2-81.54,185.5-125.45,276.8-22.02,45.8-44.56,91.34-67.62,136.63-10.8,21.2-20.86,43.22-33.2,63.57-4.81,7.93-10.59,15.62-18.76,20.32-9.64,5.55-21.46,5.86-32.21,4.19-38.12-5.94-72.14-30.79-93.71-62.16-24.88-36.19-33.26-80.69-28.97-123.97,8.69-87.57,69.74-163.48,138.32-214.3,67.63-50.12,149.67-80.94,233.77-86.41,10.23-.67,20.49-.95,30.74-.89,9.65.05,9.67-14.95,0-15h0Z"/>
    <path d="M517.38,854.84c-36.63.09-73.08-4.37-108.57-13.46-33.07-8.47-66.22-20.33-95.72-37.71-25.13-14.81-48.86-35.72-56.37-65-9.13-35.58,6.7-72.5,19.57-105.06,29.19-73.86,58.39-147.71,87.58-221.57,14.54-36.77,29.07-73.55,43.61-110.32,7.16-18.12,14.29-36.26,21.49-54.37,5.1-12.82,13.28-31.71,29.79-31.74,7.26-.01,12.85,5.16,17.36,10.28,5.45,6.18,10.14,13.1,14.89,19.81,10.03,14.19,19.46,28.81,28.24,43.8,17.69,30.19,32.83,61.87,45.02,94.67,3.08,8.28,5.96,16.63,8.69,25.04,2.97,9.14,17.45,5.23,14.46-3.99-11.46-35.35-26.02-69.72-43.56-102.48-8.76-16.36-18.25-32.32-28.45-47.82-5.02-7.63-10.21-15.14-15.57-22.53-5.06-6.98-10.04-14.34-16.23-20.39-12.62-12.34-30.39-15.07-45.21-4.61s-20.94,28.48-27.44,44.91c-15.39,38.94-30.78,77.87-46.17,116.81-30.78,77.87-61.57,155.74-92.35,233.62-14.14,35.77-32.49,73.01-33.29,112.19-.71,34.8,16.62,64.67,43.38,85.91,27.3,21.67,60.42,35.62,93.28,46.5,36.56,12.1,74.74,19.36,113.18,21.7,9.45.58,18.91.83,28.37.8s9.67-15.02,0-15h0Z"/>
    <path d="M796.37,354.6c-1.58-10.51-6.38-20.19-13.32-28.2-3.27-3.78-7.2-7.07-11.38-9.8-4.46-2.91-10.06-4.4-13.71-8.4-3.17-3.48-5.11-8-7.51-12.01-3.01-5.02-6.66-9.44-11.37-12.95-8.99-6.7-20.5-9.3-31.49-7.11-10.49,2.09-19.86,8.78-25.61,17.74-3.22,5.03-4.81,10.93-8.03,15.95-1.18,1.84-2.65,3.72-4.59,4.81-2.88,1.61-5.57.26-8.68,0-10.65-.86-17.4,9.71-28.26,6.69-11.04-3.06-14.6-13.92-21.54-21.78-7.87-8.9-20.3-14.12-32.18-13.44-14.03.81-25.62,8.79-37.31,15.74-8.29,4.93-.75,17.9,7.57,12.95,9.11-5.41,18.78-12.96,29.74-13.7,9.41-.63,17.98,3.91,23.42,11.45,6.49,9,11.62,17.37,22.32,21.79,9.24,3.82,19.3,3.44,28.03-1.51,1.73-.98,3.53-2.53,5.48-3.05,2.63-.7,5.57.67,8.25.7,5.5.06,10.54-2.25,14.66-5.81,8.4-7.25,9.4-19.12,16.97-26.82,6.44-6.55,15.83-9.09,24.65-6.47,10.35,3.07,14.22,11.59,19.44,20.06,3,4.87,6.58,9.2,11.46,12.29,4.43,2.8,9.36,4.5,13.49,7.82,8.43,6.77,13.44,16.45,15.03,27.03.6,4,5.66,6.24,9.23,5.24,4.29-1.2,5.85-5.19,5.24-9.23h0Z"/>
    <path d="M794.68,355.08c2.55-23.02,5.04-46.96-1.6-69.55-5.38-18.29-16.58-35.25-33.65-44.44l3.45,4.48c-2.8-16.33-13.55-31.39-28.35-39-16.2-8.33-35.43-7.81-51.46.61,2.52,4.32,5.05,8.63,7.57,12.95,12.66-9.45,18.43-24.96,15.19-40.48-3.07-14.71-14.43-27.44-27.94-33.58-14.14-6.43-31.79-6.56-44.05,3.97-11.03,9.48-14.85,25.26-8.47,38.38,3.23,6.64,14.43,3.5,13.98-3.79-1.57-25.42-23.22-47.68-49.13-48.1s-48.08,21.27-50.57,46.58l14.73-1.99c-5.69-27.8-34.7-45.55-61.97-37.53-29.2,8.58-42.55,40.61-30.9,68.02,1.6,3.76,7.06,4.51,10.26,2.69,3.88-2.21,4.27-6.56,2.69-10.26-8.17-19.21,3.56-41.27,23.35-46.37s38.16,8.21,42.1,27.45c1.81,8.86,13.96,5.85,14.73-1.99,1.7-17.28,18.27-31.89,35.57-31.58,17.42.31,33.07,15.87,34.13,33.1,4.66-1.26,9.32-2.52,13.98-3.79-3.43-7.05.48-16,6.42-20.41,8.13-6.04,20.02-4.51,28.46-.02,15.83,8.43,27.56,33.55,9.87,46.76-7.59,5.66-1.18,17.55,7.57,12.95,13.56-7.13,30.77-6.07,42.9,3.55,5.6,4.44,10.09,10.52,12.62,17.2,1.42,3.73,1.32,9.05,4.17,11.98,2.47,2.55,6.42,3.88,9.21,6.16,28.05,23.01,23.67,64.1,20.13,96.05-.45,4.03,3.77,7.5,7.5,7.5,4.43,0,7.05-3.46,7.5-7.5h0Z"/>
    <path d="M694.97,292.54c1.01-12.5.44-26.81-10.76-34.85-5.83-4.18-13.04-4.94-19.92-6.11s-14.31-2.54-21.49-3.66-14.25-1.8-21.14.64c-6.21,2.2-11.31,6.42-16.17,10.73-9.46,8.39-18.63,17.45-22.16,29.97-2.63,9.31,11.84,13.28,14.46,3.99s9.29-15.22,15.92-21.21c3.49-3.15,7.04-6.69,11.35-8.71,4.87-2.28,10.46-1.49,15.59-.64s10.6,1.81,15.9,2.72,11.07,1.27,16.07,3.06c9.59,3.44,8,16.02,7.34,24.08-.78,9.62,14.23,9.57,15,0h0Z"/>
    <path d="M619.99,257.69c-8.67-13.84-17.33-27.67-26-41.51-1.8-2.87-5.17-4.29-8.47-3.45-27.29,6.97-53.65,17.24-78.51,30.48-8.52,4.54-.96,17.49,7.57,12.95,23.76-12.65,48.85-22.3,74.93-28.97l-8.47-3.45c8.67,13.84,17.33,27.67,26,41.51,5.11,8.16,18.1.64,12.95-7.57h0Z"/>
  </g>
</svg>