<?xml version="1.0" encoding="UTF-8"?>
<svg xmlns="http://www.w3.org/2000/svg" viewBox="0 0 1024 1024">
  <defs>
    <style>
      .cls-1 {
        fill: #d62a16;
      }

      .cls-2 {
        fill: #0086a2;
      }

      .cls-3 {
        fill: #e1331c;
      }

      .cls-4 {
        fill: #00abd9;
      }
    </style>
  </defs>
  <g id="Colors">
    <path class="cls-1" d="M748.35,503.76c-4.85,0-8.66,2.2-11.17,5.56-1.15-.3-2.36-.48-3.63-.48-3.49,0-6.95,1.44-9.62,3.76-2.03.45-3.8,2.01-3.86,4.69,0,.17-.01.33-.02.5-.74,1.72-1.12,3.59-1.01,5.55.15,2.63.23,5.21.26,7.76-3.96,43.59-22.55,85.38-53.16,116.94-34.2,35.26-79.58,54.27-128.12,58.76-29.77,2.75-59.72,1.2-89.49-.57-2.37-.14-4.02,1.69-4.82,3.67-3.26,8.1-3.52,16.85-1,25.19.93,3.09,3.84,3.96,6.26,3.28.98,3.44,3.16,5.7,7.3,5.13.53-.07,1.02-.21,1.5-.4,2.06,3.66,5.23,6.75,9.1,8.83,5.93,3.19,12.94,4.14,19.45,5.36,7.8,1.45,15.66,2.58,23.53,3.52,29.31,3.5,58.84,2.5,87.96-2.13,26.44-4.2,53.81-11.57,75.99-27.12,24.78-17.37,42.24-43.07,55.48-69.9,3.29-6.66,6.32-13.44,9.09-20.31,2.44-1.84,4.32-4.42,5.08-7.52,1.8-7.33,3.48-14.69,5.06-22.08,3.57-12.61,6.27-25.47,8.02-38.51.24-1.77.26-3.54.07-5.26,2.58-16.51,4.65-33.09,6.22-49.73.74-7.81-7.19-14.5-14.5-14.5Z"/>
    <path class="cls-3" d="M756.82,484.09c-.96-3.48-3.13-6.26-5.93-8.1-.08-.73-.19-1.47-.39-2.2-17.63-66.39-63.44-121.76-120.25-159.01-29.57-19.39-62.32-34.01-95.98-44.73-36.2-11.52-75.33-20.14-113.48-16.1-62.71,6.65-118.06,46.9-148.12,101.83-33.69,61.56-33.27,138.05-7.31,202.3,25.32,62.67,72.35,113.64,128.49,150.4,6.69,4.38,13.52,8.54,20.46,12.51.86.49,1.76.89,2.68,1.18,0,.15,0,.31,0,.46.22,7.83,6.51,14.5,14.5,14.5s14.72-6.64,14.5-14.5c-.16-5.84-.47-8.84,1.05-12.53-.43,1.1.27.21.58-.31.91-.24,2.18-.59,1.96-.62,1.28-.13,2.6-.1,3.86-.09,14.29.12,28.64,2.19,42.93,2.79,28.66,1.19,57.83-.44,85.33-9.16,49.14-15.59,91.57-50.02,115.83-95.65,14.2-26.72,22.2-56.24,23.57-86.45.08-1.81-.26-3.54-.9-5.16.85-.5,1.69-1.08,2.5-1.76,6.48-5.46,15.1-9.57,23.97-11.79,7.6-1.9,12.17-10.42,10.13-17.84Z"/>
    <path class="cls-2" d="M822.98,671.23c-3.78-4.75-10.08-7.09-15.49-9.47-5.99-2.63-12.12-4.95-18.28-7.16-13.58-4.86-27.33-9.25-40.25-15.72-3.44-1.72-6.49,3.45-3.03,5.18.46.23.94.45,1.4.67-.73,1.14-.86,2.79.09,3.99.08.1.16.18.24.28-1.16-.21-2.33-.39-3.53-.51-2.54-.26-4.03,3.5-2.12,5.12.23.19.47.37.7.57-.45.86-.51,1.84.02,2.62-1.1-.29-2.2-.56-3.29-.85-3.73-1-5.33,4.79-1.6,5.79,27.2,7.28,54.97,12.15,83.02,14.61,2.89.25,3.56-3.32,2.12-5.12Z"/>
    <path class="cls-2" d="M767.04,746.25c-9.92-24.78-24.61-46.99-39.45-69.04-2.14-3.19-7.35-.19-5.18,3.03.86,1.28,1.73,2.57,2.59,3.85-.92,0-1.83.38-2.42,1.07-.87.04-1.72.37-2.54,1.09-.17.15-.29.31-.43.47-1.35.09-2.59.92-2.73,2.23-1.53.33-2.84,1.68-2.31,3.63,3.12,11.31,11.96,21.06,19.49,29.77,8.47,9.79,17.86,18.72,27.96,26.82,2.03,1.62,6.26.2,5.01-2.92Z"/>
    <path class="cls-2" d="M298.45,321.73c-.2-.26-.41-.51-.61-.77-.35-.44-.74-.71-1.14-.87-7.78-7.33-14.28-15.81-21.25-23.91-7.88-9.16-16.69-17.43-25.53-25.65-2.33-2.17-5.48.04-5.01,2.92,4.22,26.09,19.42,48.01,35.88,67.98,2.46,2.98,6.68-1.28,4.24-4.24-1.57-1.9-3.11-3.82-4.64-5.76,1.13.8,2.32,1.55,3.6,2.21,2.98,1.52,6.08-2.19,3.64-4.71-.58-.6-1.16-1.2-1.74-1.81-.03-.09-.08-.19-.11-.28.1-.03.2-.07.3-.11,2.45,2.15,6.12-1.82,3.85-4.64-.37-.45-.73-.91-1.1-1.36,1.74,1.8,3.53,3.56,5.41,5.25,2.94,2.63,6.6-1.26,4.24-4.24Z"/>
    <path class="cls-2" d="M272.22,363.76c-.44-.32-.89-.63-1.33-.95-.75-.53-1.48-.64-2.13-.47-22.5-9.02-46.47-12.35-70.4-15.46-3.28-.43-3.6,4.08-1.51,5.59,19.06,13.78,40.61,23.64,63.49,29.08,3.75.89,5.36-4.89,1.6-5.79-1.11-.26-2.21-.54-3.31-.82,1.5-.39,2.29-2.05,2.01-3.54,2.4-.18,3.4-3.55,1.68-5.21,2.32.86,4.62,1.77,6.89,2.75,3.52,1.52,6.22-2.9,3.03-5.18Z"/>
    <path class="cls-4" d="M905.48,586.92c-13.68-1.16-27.9,1.18-41.53,2.29-29.05,2.35-58.09,4.71-87.14,7.06-3.09.25-6.14,1.26-8.74,2.9-1.16-.12-2.43.35-2.93,1.44-.23.51-.44,1.02-.64,1.53-2.41,2.66-3.88,6.11-3.7,10.13.03.77.14,1.54.29,2.31-.05.02-.1.04-.15.06-.52.32-1.03.68-1.45,1.13-.63.59-1.08,1.29-1.34,2.09-.41.77-.59,1.61-.56,2.5-.03.89.15,1.73.56,2.5.15.45.36.86.62,1.25-.13.5-.25,1-.34,1.51-.73.13-1.42.38-2,.75-2.88,1.85-3.85,5.15-2.64,8.21-.24-.15-.49-.29-.73-.43-3.29-2.03-6.31,3.15-3.03,5.18,10.83,6.69,22.81,10.89,34.85,14.84,6.2,2.03,12.41,4.02,18.51,6.34,5.76,2.2,12.86,4.55,17.34,9.01,1.8,1.79,4.19,4.35-.1,6.48-1.24.62-3.92-.39-5.2-.56-3.47-.47-6.94-.95-10.4-1.44-7.56-1.07-15.12-2.2-22.65-3.5-14.41-2.49-28.69-5.63-42.65-9.99-3.26-1.02-4.86,3.35-2.68,5.2-.17.17-.33.34-.49.52-1.44.73-2.6,2.01-3.27,3.49-1.87,1.19-3.24,3.3-3.36,5.56-1.85.36-3.42,2.31-2.14,4.38,7.42,11.92,14.79,23.88,21.93,35.97,3.49,5.9,6.94,11.83,10.27,17.82,1.73,3.11,3.49,6.22,4.52,9.64.19.61,1.37,3.96.66,4.54-.17.14-.35.23-.54.28-.58-.2-1.2-.32-1.82-.36-.85-.45-1.65-1.16-2.16-1.51-19.63-13.7-35.6-32.52-46.85-53.57-1.82-3.41-7-.38-5.18,3.03,1.39,2.59,2.86,5.14,4.38,7.65-2.89,1.41-5.03,4.78-3.65,8.48-6.53-.76-12.17,2.2-16.07,7.68-7.32,10.3-8.51,25.13-3.37,36.82.73,37.87,10.47,75.51,27.98,109.11,6.21,11.91,13.99,25.54,29.35,25.44,14.17-.1,22.92-12.29,30.42-22.57,11.79-16.16,20.67-34.16,30.87-51.3,2.31-3.87,4.68-7.71,7.17-11.47,1.37-2.07,2.78-4.12,4.24-6.13.58-.8,1.17-1.6,1.76-2.39,1.12-1.48,1.19-1.58.22-.28.46-.58.93-1.15,1.4-1.72,2.98-3.62,6.14-7.08,9.53-10.32,1.8-1.72,3.68-3.32,5.56-4.94.14-.12.54-.43.84-.67,1-.74,2.01-1.47,3.02-2.19,8.64-6.12,18.11-11.77,25.21-19.74,8.92-10.01,13.27-21.71,13.92-35.08.27-5.57-.19-11.14-.45-16.71-.14-2.94-.25-5.89-.17-8.83.03-1.17.11-2.33.18-3.5.04-.64.04-1.01.04-1.23.06-.16.15-.49.3-1.08.65-2.7,1.25-5.35,2.15-7.98.27-.78.55-1.57.85-2.35,0,.13,1.45-3.05,1.42-2.99,1.13-2.23,2.38-4.4,3.72-6.51,1.73-2.72,3.04-4.53,3.88-5.52,3.33-3.94,6.89-7.65,10.71-11.11,5.2-4.71,7.69-6.57,13.03-10.31,10.99-7.68,23.94-14.44,24.8-29.54,1.09-19.27-21.26-26.03-36.39-27.31Z"/>
    <path class="cls-4" d="M325.15,276.86c-.65-1.61-1.58-3.17-2.77-4.61-.04-.05-.1-.09-.14-.15-6.61-29.93-12.63-60.16-21.59-89.48-2.36-7.74-4.97-15.4-7.92-22.93-2.79-7.12-5.47-14.82-9.96-21.07-7.57-10.55-25.01-15.59-32.47-2.07-3.03-.43-6.25.93-6.92,4.57-.44,2.37-.88,4.73-1.32,7.1-1.54,5.04-2.23,10.59-3.04,15.87-3.11.15-5.98,2.22-5.74,6.24.33,5.59.67,11.18,1,16.77-.65.74-1.13,1.74-1.33,3.03-2,12.8-13.86,19.39-24.85,23.89-6.59,2.7-13.36,5.03-19.71,8.29-6.36,3.27-12.14,7.59-17.53,12.26-9.68,8.38-20.76,18.29-25.71,30.36-5.34,12.99-2.87,27.27-.3,40.59.43,2.2,1.64,3.55,3.15,4.21-.43,6.33-2.28,12.54-5.54,18.1-5.01,8.55-12.7,15.11-20.03,21.62-6.83,6.06-13.65,12.61-19.17,19.94-.65.62-1.18,1.34-1.55,2.12-5.85,8.34-9.92,17.69-10.37,28.46-.83,19.8,13.82,36.98,34.06,36.59,11.08-.21,22.37-2.95,33.29-4.67,11.94-1.88,23.87-3.76,35.81-5.64,11.81-1.86,25.02-2.41,36.27-6.65,2.04-.77,3.95-1.7,5.79-2.76,2.09.13,4.22-.76,5.58-3.15.17-.3.35-.61.52-.91.7-.52,1.39-1.04,2.08-1.58,5.25-4.11,6.33-11.1,8.41-17.22.42-1.24.43-2.39.15-3.42,5.62-1.48,7.12-10.83.19-12.55-10.81-2.68-21.6-5.85-31.68-10.65-4.99-2.38-9.82-5.11-14.36-8.26-2.27-1.58-4.44-3.28-6.51-5.11-1.11-.99-4.08-3.08-4.63-4.83,4.75-1.76,12.77.08,16.8.5,1.79.19,3.57.41,5.34.66,2.61.5,5.22,1,7.82,1.52,12.9,2.56,25.74,5.39,38.54,8.44,6.84,1.63,10.38-6.96,6.49-10.9.2-.2.38-.41.56-.64,3.97,2.22,9-1.54,9.44-5.97.06-.63.12-1.25.18-1.88.37-3.78-2.11-5.82-5-6.16-7.38-8.9-14-18.42-19.7-28.49-.04-.11-.08-.22-.12-.32-4.38-9.9-7.76-20.18-10.31-30.69-.15-1.6-.27-3.21-.35-4.83.22-.12.44-.26.65-.41.96.39,2.12.76,2.7,1.17,2.36,1.64,4.45,3.89,6.55,5.85,4.25,3.97,8.39,8.05,12.42,12.23,8.28,8.6,16.05,17.65,23.37,27.07,2.17,2.79,6.91,2.24,9.19,0,1.52-1.48,2.01-3.27,1.8-5.04.78-.31,1.48-.78,2.04-1.43.96-1.12,1.94-2.43,2.85-3.88,3.35-1.64,6.2-4.85,8.15-7.73,1.86-.82,3.43-2.27,4.7-4.07,2.24-.32,4.37-1.66,5.4-4.28.75-1.93,1.5-3.85,2.26-5.78,1.05-2.69-.62-5.78-2.92-7.22Z"/>
  </g>
  <g id="Outlines">
    <path d="M728.8,669.1c1.93,0,1.93-3,0-3s-1.93,3,0,3h0Z"/>
    <path d="M735.4,672.12c29.98-43.81,40.86-98.64,34.96-151.01-6-53.24-28.43-102.23-62.53-143.32s-76.83-71.83-123.77-94.41c-52.98-25.49-112.84-42.11-171.9-33.49-52.28,7.63-98.28,37.82-129.77,79.71-34.01,45.23-47.85,103.19-43.04,159.17s28.18,109.9,63.21,154.58c34.36,43.82,79.94,79.92,130.92,102.45,26.14,11.56,53.51,19.55,81.88,23.16,26.53,3.38,53.29,2.03,79.66-2.11,45.65-7.17,91.27-26.05,120.59-63.13,7.31-9.24,13.55-19.13,18.68-29.75,4.18-8.65-8.75-16.27-12.95-7.57-9.67,20.02-23.4,37.71-41.16,51.21-17.08,12.99-36.88,21.92-57.42,27.83-47.86,13.77-99.39,14.02-147.16-.02-51.27-15.06-97.85-44.63-135.49-82.32s-66.08-83.53-79.04-134.87c-13.37-52.98-9.85-111.47,15.21-160.56,21.49-42.09,58.12-77.43,102.76-93.96,53.85-19.94,113.03-10.79,165.52,8.93,46.89,17.61,91.13,44.13,127.44,78.76s63.71,76.56,76.6,124.57c12.81,47.68,11.53,100.23-8.08,145.94-4.91,11.45-11.03,22.35-18.06,32.63-5.47,7.99,7.53,15.5,12.95,7.57h0Z"/>
    <path d="M763.32,601.41l84.7-6.24c13.79-1.02,27.57-2.05,41.36-3.05,11.61-.84,24.87-2.32,35.58,3.31,8.88,4.67,14.48,13.17,10.98,23.26-3.87,11.2-14.79,18.01-23.98,24.52-18.17,12.87-35.69,28.86-37.92,52.33-1.85,19.45,10.14,45.75-8.46,59.98-8.2,6.27-18.36,9.53-27.25,14.63-9.84,5.64-18.07,13.48-24.94,22.45-14.75,19.28-20.04,42.59-31.17,63.72-4.85,9.2-11.23,18.07-20.33,23.45-8.34,4.94-19.77,6.51-28.27,1.02-4.99-3.22-7.92-8.54-10.45-13.74-3.07-6.3-5.74-12.83-8.34-19.34-5.12-12.8-9.64-25.84-13.28-39.14-7.31-26.66-10.59-53.97-10.66-81.59-.03-9.65-15.03-9.67-15,0,.08,26.63,3.01,53.22,9.49,79.07,3.18,12.69,7.19,25.17,11.79,37.41,4.63,12.32,9.22,25.59,16.11,36.85,13.96,22.79,42.96,23.61,62.71,7.79,20.88-16.73,26.18-43.71,37.33-66.63,5.17-10.63,11.53-20.77,20.08-29.01s18.54-12.41,28.71-17.53c9.99-5.03,19.67-11.59,24.65-21.97,5.49-11.46,4.38-24.1,3.09-36.34s-2.41-23.81,3.66-34.63c5.64-10.06,14.83-17.8,24.07-24.46,10.46-7.55,21.73-14.59,28.64-25.84,6.52-10.62,8.12-24.12,1.52-35.1-16.66-27.71-55.4-19.71-82.01-17.75-34.14,2.52-68.28,5.03-102.42,7.55-9.57.71-9.65,15.71,0,15h0Z"/>
    <path d="M339.26,283.32c-7.64-28.24-15.27-56.49-22.91-84.73-3.48-12.87-6.65-25.87-10.56-38.61-3.54-11.54-8.59-23.4-17.92-31.47-8.76-7.58-20.32-11.91-31.89-9.28-9.79,2.22-17.5,9.63-22.2,18.24-5.14,9.4-7.07,19.72-8.47,30.21s-2.41,21.1-8.02,29.89c-6.17,9.66-18.37,13.01-28.32,17.32-11.56,5.01-22.66,11.28-31.98,19.86-8.31,7.65-14.91,17.27-18.53,28-4.36,12.93-1.72,25.59-.98,38.8.69,12.53-3.61,22.92-11.72,32.37s-17.21,16.38-25.63,24.76c-16.27,16.21-29.97,41.7-16.12,63.79,15.79,25.21,47.78,24.8,73.85,21.8,31.33-3.61,62.32-9.58,92.72-17.95,9.29-2.56,5.35-17.03-3.99-14.46-24.79,6.82-49.98,12.12-75.43,15.72-21.03,2.98-48.9,8.88-67.28-5.21-18.79-14.41-8.45-37.24,5.04-51.22,15.16-15.71,34.52-28.51,41.46-50.32,3.81-11.96,1.3-23.9.52-36.07-.71-11.15,1.96-21,8.4-30.17s15.39-15.57,24.89-20.77c9.78-5.36,20.63-8.5,30.3-14.02,20.1-11.47,22.97-32.18,25.95-53.11,2.04-14.34,9.27-38.99,28.85-32.14,11.42,3.99,17.4,15.44,21.01,26.21,4.37,13.06,7.47,26.61,11.07,39.9,7.81,28.88,15.62,57.77,23.43,86.65,2.52,9.31,16.99,5.36,14.46-3.99h0Z"/>
    <path d="M755.33,493.09c-84.13,38.07-153.84,106.73-194.58,189.48-11.55,23.47-20.84,48.04-27.54,73.32-2.47,9.34,11.99,13.33,14.46,3.99,22.84-86.2,76.72-163.58,149.09-215.62,20.72-14.9,42.88-27.71,66.13-38.22,3.72-1.68,4.54-7,2.69-10.26-2.17-3.82-6.59-4.35-10.26-2.69h0Z"/>
    <path d="M707.78,390.79c-52.27,24.51-100.2,58.28-140.92,99.22-41.59,41.81-75.54,91.18-99.73,144.96-13.88,30.85-24.67,62.97-32.05,95.98-2.1,9.4,12.36,13.42,14.46,3.99,12.72-56.91,35.59-111.21,67.57-159.98,30.99-47.26,70.58-89.02,116.13-122.48,25.7-18.88,53.23-35.19,82.1-48.73,8.73-4.1,1.13-17.03-7.57-12.95h0Z"/>
    <path d="M623.27,310.46c-55.29,25.34-105.94,60.79-148.73,104.02s-79.02,96.39-103.71,153.33c-14.13,32.59-24.94,66.47-32.01,101.28-1.91,9.42,12.54,13.46,14.46,3.99,12.17-59.9,35.32-117.21,68.31-168.67,32.33-50.43,74.15-94.86,122.53-130.19,27.12-19.81,56.2-36.81,86.73-50.8,3.71-1.7,4.55-6.99,2.69-10.26-2.17-3.81-6.6-4.37-10.26-2.69h0Z"/>
    <path d="M510.51,259.97c-89.44,52.03-163.36,130.08-211,221.91-13.43,25.88-24.76,52.87-33.88,80.56-3.02,9.19,11.46,13.13,14.46,3.99,31.42-95.48,90.67-180.99,168.11-244.95,21.9-18.09,45.32-34.28,69.87-48.56,8.34-4.85.8-17.82-7.57-12.95h0Z"/>
  </g>
</svg>