<?xml version="1.0" encoding="UTF-8"?>
<svg xmlns="http://www.w3.org/2000/svg" viewBox="0 0 1024 1024">
  <defs>
    <style>
      .cls-1 {
        fill: #fff;
      }

      .cls-2 {
        fill: #e6e4df;
      }
    </style>
  </defs>
  <g id="Colors">
    <path class="cls-1" d="M704.21,287.13c-3.33-10.29-9.37-17.33-18.15-23.61-20.56-14.67-46.3-19.9-70.74-23.86-27.99-4.53-56.23-7.71-84.57-8.82-25.13-.98-50.32-.43-75.39,1.67-24.67,2.07-50.45,4.12-74.15,11.71-27.23,8.72-52.32,24.77-66.53,50.32-13,23.37-16.14,50.05-17.04,76.35-1.77,51.23-2.68,102.51-4.01,153.75-.67,25.9-1.34,51.8-2.02,77.7-.66,25.54-2.64,52.73,5.64,77.35,9.14,27.17,28.14,50.08,53.91,63.06,24.9,12.54,52.58,17.51,80.36,15.3,26.28-2.09,52.71-7.64,77.99-15.12,26.08-7.73,50.45-19.13,70.98-37.2,20.3-17.87,32.87-42.21,42.53-66.99,8.53-21.88,13.93-45.1,18.13-68.16,9.4-51.55,12.18-103.89,12.65-156.2.11-12.38.12-24.76.1-37.14-.02-14.03.53-29.04-4.25-42.43-.16-.45-.34-.89-.51-1.34,8.02,4.03,19.53,4.42,27.49,2.23,9.16-2.52,19.09-9.61,23.61-18.15,4.84-9.17,7.27-20.27,3.98-30.44Z"/>
    <path class="cls-2" d="M523.67,333.44c-53.41,2.32-114.57,4.89-158.44-31.33-7.88-6.51-19.26,4.75-11.31,11.31,47.7,39.38,111.26,38.55,169.76,36.02,10.26-.44,10.31-16.45,0-16Z"/>
    <path class="cls-2" d="M723.38,638.42c-.55-17.62-3.95-35.23-5.7-52.77-1.82-18.28-3.11-36.6-3.8-54.96-1.38-36.87-.12-73.71,3.76-110.4,4.29-40.49,9.45-81.43-1.18-121.46-1.83-6.91-8.39-12.07-15.4-13.4.55-.67,1.1-1.33,1.64-2.01,2.69-3.38,3.3-8.01,0-11.31-2.79-2.79-8.61-3.4-11.31,0-33.41,42.02-86.67,65.34-140.21,61.16-10.27-.8-10.22,15.2,0,16,1.8.14,3.61.25,5.42.33.9.89,2.1,1.58,3.64,1.96,35.1,8.76,53.56,43.34,60.31,76.3,4.05,19.78,5.03,40.21,5.39,60.35.38,21.32-.49,42.65-2.61,63.87-3.66,36.62-9.51,76.03-28.11,108.41-18.3,31.86-49.8,48.78-83.33,60.88-20.46,7.38-41.27,14.27-62.26,19.97-22.71,6.17-45.85,10.1-69.44,8.3-10.27-.79-10.22,15.22,0,16,15.12,1.16,30.14.1,45.01-2.36-.04.33-.07.66-.07,1.01,0,3.94,3.68,8.5,8,8,4.73-.55,9.44-1.21,14.13-1.95,1.43,1.57,3.51,2.52,5.9,2.71,8.27.67,16.54.84,24.8.68,1.29,1.45,3.2,2.4,5.73,2.39,1.34,0,2.68-.03,4.02-.06,11.75-.18,23.49-.35,35.24-.53,2.63.57,5.32.51,7.96-.12,9.55-.14,19.1-.29,28.65-.43,15.68-.24,32.62-.17,45.1-9.51,19.6-4.8,37.64-15.35,53.84-27.87,2.02.15,4.09-.09,6.15-.83,20.91-7.46,36.95-23.57,43.29-45.02.26-.89.42-1.8.53-2.71,10.87-14.71,15.46-32.42,14.89-50.62Z"/>
  </g>
  <g id="Outlines">
    <path d="M499.21,232.38c1.93,0,1.93-3,0-3s-1.93,3,0,3h0Z"/>
    <path d="M505.17,236.96c27.82,1.22,55.68,2.16,83.4,4.94,24.76,2.48,51.02,5.1,73.78,15.84,21.17,9.98,43.07,26.47,52.01,48.88,9.21,23.07,5.91,49.39,3.15,73.4-6.91,59.97-7.96,119.86-2.21,179.98,4.62,48.35,12.86,106.12-20.67,146.68-15.68,18.97-37.42,32.08-60.05,41.2-25.17,10.14-51.95,16.72-78.78,20.54-55.99,7.96-113.91,2.63-167.53-15.29-22.7-7.59-45.71-17.7-63.07-34.65-19.14-18.69-25.42-43.55-26.35-69.6-1.07-29.73.85-59.72,1.58-89.45s1.51-62.18,2.27-93.27,1.53-62.84,2.29-94.26c.62-25.69-.26-54.18,13.17-77.13,12.82-21.9,37.33-33.46,60.28-41.77,27.1-9.81,55.6-15.63,84.39-17.03,14.12-.69,28.25-.32,42.32.99,9.61.89,9.55-14.11,0-15-30.66-2.85-61.65-.97-91.76,5.44-27.19,5.79-55.8,14.77-79.15,30.25-11.18,7.41-21.13,16.66-28.19,28.14s-11.1,25.17-13.11,38.67-2.48,28.27-2.83,42.48c-.39,15.88-.77,31.75-1.16,47.63-1.59,65.49-3.18,130.97-4.78,196.46-.71,29.11-2.45,59.71,9.15,87.13,10.12,23.92,30.11,41.35,52.66,53.39,24.87,13.28,52.69,21.64,80.2,27.33,29,6.01,58.73,8.71,88.34,7.92,30.18-.8,60.39-5.14,89.53-13.05,25.23-6.84,50.45-16.2,72.25-30.88s39.5-35.12,48.88-60.34c9.34-25.12,10.17-52.71,8.75-79.18-1.56-28.94-5.48-57.69-6.82-86.65-1.5-32.54-1.01-65.16,1.46-97.64,2.13-27.9,7.89-56.06,6.45-84.12-.68-13.24-3.18-26.26-8.79-38.34s-14.44-22.13-24.15-30.65c-19.98-17.56-44.36-28.48-70.42-33.12-27.37-4.87-55.03-7.36-82.77-8.86-14.58-.79-29.17-1.38-43.76-2.01-9.65-.42-9.63,14.58,0,15h0Z"/>
  </g>
</svg>